M48
;DRILL file {Pcbnew (2013-07-07 BZR 4022)-stable} date 21/05/2014 18:51:12
;FORMAT={-:-/ absolute / inch / decimal}
FMAT,2
INCH,TZ
T1C0.012
T2C0.032
T3C0.039
T4C0.039
T5C0.039
T6C0.040
T7C0.047
%
G90
G05
M72
T1
X0.3661Y0.0413
X0.5197Y0.1673
X0.5768Y0.9134
X0.876Y0.9902
X0.9449Y1.2618
X0.9843Y0.6437
X1.002Y1.3642
X1.0433Y1.1024
X1.063Y0.8839
X1.1161Y1.1339
X1.1614Y0.9902
X1.2323Y0.9114
X1.2736Y0.748
X1.315Y0.9429
X1.3346Y0.9744
X1.3543Y1.0059
X1.374Y1.0374
X1.3957Y1.0709
X1.4134Y1.1024
X1.4409Y1.1339
X1.4843Y1.1358
X1.5197Y0.9114
X1.5315Y0.752
X1.6752Y0.7539
X1.7756Y0.8898
X1.7756Y0.7441
X1.7815Y1.
X1.7815Y0.9626
X1.7815Y0.9272
X1.7913Y1.0315
X1.8091Y1.4075
X1.8189Y1.0571
X1.8465Y1.0827
X1.872Y1.1083
X1.8976Y1.1357
X1.9996Y1.3897
X2.0171Y1.3597
X2.0521Y1.3497
X2.0871Y1.3347
X2.1102Y1.1161
X2.1121Y1.1522
X2.1296Y1.3397
X2.1671Y1.3397
X2.1671Y1.3047
X2.2106Y1.2795
X2.2244Y0.6791
X2.25Y0.811
X2.2971Y1.3172
X2.313Y1.1161
X2.3471Y1.2897
X2.3543Y1.1299
X2.3563Y1.1634
X2.4114Y0.6457
X2.4134Y0.815
X2.5138Y1.1555
X2.5669Y0.9331
X2.5669Y0.8858
X2.5689Y0.5177
X2.7165Y0.7185
X2.7246Y1.1397
X2.7746Y1.1347
X2.8146Y1.1147
X2.8228Y0.7598
X2.8248Y0.7087
X2.8446Y1.0847
X2.8446Y0.9247
X2.8496Y0.7847
X2.8521Y0.8197
X2.8524Y0.7343
X2.8524Y0.6811
X2.8546Y1.0147
X2.8546Y0.8697
X2.8917Y1.0098
X2.9764Y0.3937
T2
X1.4346Y1.5947
X1.4346Y1.3947
X1.7346Y1.5947
X1.7346Y1.3947
T3
X0.5504Y1.5224
X0.5504Y1.4224
X0.6504Y1.5224
X0.6504Y1.4224
X0.7504Y1.5224
X0.7504Y1.4224
X0.8504Y1.5224
X0.8504Y1.4224
X0.9504Y1.5224
X0.9504Y1.4224
X1.0504Y1.5224
X1.0504Y1.4224
X1.1504Y1.5224
X1.1504Y1.4224
T4
X0.1496Y0.7378
X0.1496Y0.6197
X0.1496Y0.5016
T6
X0.5846Y1.2173
X0.5846Y1.1173
X0.7224Y1.2173
X0.7224Y1.1173
X1.0681Y1.2165
X1.1681Y1.2165
X2.0449Y1.5717
X2.0449Y1.4717
X2.1449Y1.5717
X2.1449Y1.4717
X2.2449Y1.5717
X2.2449Y1.4717
X2.3449Y1.5717
X2.3449Y1.4717
X2.4449Y1.5717
X2.4449Y1.4717
X2.5449Y1.5717
X2.5449Y1.4717
X2.6449Y1.5717
X2.6449Y1.4717
X2.7449Y1.5717
X2.7449Y1.4717
X2.8449Y1.5717
X2.8449Y1.4717
X3.028Y1.2563
X3.028Y1.1563
X3.028Y1.0563
X3.028Y0.9563
X3.028Y0.8563
X3.028Y0.7563
X3.028Y0.6563
X3.028Y0.5563
X3.028Y0.4563
X3.128Y1.2563
X3.128Y1.1563
X3.128Y1.0563
X3.128Y0.9563
X3.128Y0.8563
X3.128Y0.7563
X3.128Y0.6563
X3.128Y0.5563
X3.128Y0.4563
T7
X-0.0004Y0.1386
X-0.0004Y0.0008
X0.2378Y-0.0358
X0.2378Y-0.2244
X0.75Y-0.0358
X0.75Y-0.2244
X0.8878Y-0.0358
X0.8878Y-0.2244
X1.4Y-0.0358
X1.4Y-0.2244
X1.628Y-0.0374
X1.628Y-0.226
X2.1402Y-0.0374
X2.1402Y-0.226
X2.3071Y-0.0374
X2.3071Y-0.226
X2.8193Y-0.0374
X2.8193Y-0.226
T5
X0.0075Y1.159G85X0.0075Y1.0803
G05
X0.0863Y1.3047G85X0.165Y1.3047
G05
X0.2437Y1.159G85X0.2437Y1.0803
G05
T0
M30
