G04 (created by PCBNEW (2013-07-07 BZR 4022)-stable) date 21/05/2014 18:52:46*
%MOIN*%
G04 Gerber Fmt 3.4, Leading zero omitted, Abs format*
%FSLAX34Y34*%
G01*
G70*
G90*
G04 APERTURE LIST*
%ADD10C,0.00590551*%
%ADD11C,0.0593*%
%ADD12R,0.0098X0.06*%
%ADD13O,0.0098X0.06*%
%ADD14O,0.06X0.0098*%
%ADD15R,0.0394X0.0236*%
%ADD16R,0.06X0.08*%
%ADD17R,0.08X0.06*%
%ADD18R,0.055X0.035*%
%ADD19R,0.035X0.055*%
%ADD20R,0.0255906X0.0492126*%
%ADD21R,0.018X0.028*%
%ADD22R,0.19685X0.255906*%
%ADD23R,0.071X0.063*%
%ADD24R,0.063X0.071*%
%ADD25R,0.059X0.0512*%
%ADD26R,0.0512X0.059*%
%ADD27R,0.01X0.08*%
%ADD28R,0.1X0.13*%
G04 APERTURE END LIST*
G54D10*
G54D11*
X11503Y14224D03*
X11503Y15224D03*
X10503Y14224D03*
X10503Y15224D03*
X9503Y14224D03*
X9503Y15224D03*
X8503Y14224D03*
X8503Y15224D03*
X7503Y14224D03*
X7503Y15224D03*
X6503Y14224D03*
X6503Y15224D03*
X5503Y14224D03*
X5503Y15224D03*
G54D12*
X25531Y7492D03*
G54D13*
X25334Y7492D03*
X25137Y7492D03*
X24940Y7492D03*
X24743Y7492D03*
X24547Y7492D03*
X24350Y7492D03*
X24153Y7492D03*
X23956Y7492D03*
X23759Y7492D03*
X23562Y7492D03*
X23366Y7492D03*
X23169Y7492D03*
X22972Y7492D03*
X22775Y7492D03*
X22578Y7492D03*
G54D14*
X21680Y8327D03*
X21680Y8524D03*
X21680Y8721D03*
X21680Y8918D03*
X21680Y9115D03*
X21680Y9311D03*
X21680Y9508D03*
X21680Y9705D03*
X21680Y9902D03*
X21680Y10099D03*
X21680Y10296D03*
X21680Y10492D03*
X21680Y10689D03*
X21680Y10886D03*
X21680Y11083D03*
X21680Y11280D03*
G54D13*
X22578Y12178D03*
X22775Y12178D03*
X22972Y12178D03*
X23169Y12178D03*
X23366Y12178D03*
X23562Y12178D03*
X23759Y12178D03*
X23956Y12178D03*
X24153Y12178D03*
X24350Y12178D03*
X24547Y12178D03*
X24743Y12178D03*
X24940Y12178D03*
X25137Y12178D03*
X25334Y12178D03*
X25531Y12178D03*
G54D14*
X26366Y11280D03*
X26366Y11083D03*
X26366Y10689D03*
X26373Y10886D03*
X26366Y10492D03*
X26366Y10296D03*
X26366Y10099D03*
X26366Y9902D03*
X26366Y9705D03*
X26366Y9508D03*
X26366Y9314D03*
X26366Y9117D03*
X26366Y8920D03*
X26366Y8723D03*
X26366Y8527D03*
X26366Y8330D03*
G54D15*
X3211Y1713D03*
X2379Y1338D03*
X3211Y963D03*
X7300Y9526D03*
X8132Y9901D03*
X7300Y10276D03*
X11183Y10276D03*
X10351Y9901D03*
X11183Y9526D03*
G54D16*
X17406Y12876D03*
X16106Y12876D03*
X15306Y12876D03*
X14006Y12876D03*
G54D17*
X1220Y0D03*
X1220Y1299D03*
G54D16*
X1082Y2578D03*
X2382Y2578D03*
G54D18*
X9389Y9526D03*
X9389Y10276D03*
X8405Y11298D03*
X8405Y12048D03*
X18070Y14605D03*
X18070Y15355D03*
G54D19*
X5491Y9905D03*
X6241Y9905D03*
G54D18*
X18196Y12341D03*
X18196Y13091D03*
X15876Y11261D03*
X15876Y12011D03*
X4173Y963D03*
X4173Y1713D03*
G54D20*
X3346Y8897D03*
X5157Y8897D03*
G54D21*
X4251Y8661D03*
G54D22*
X4251Y6899D03*
G54D20*
X6929Y8917D03*
X8740Y8917D03*
G54D21*
X7834Y8681D03*
G54D22*
X7834Y6919D03*
G54D23*
X18976Y15451D03*
X18976Y14351D03*
G54D24*
X2282Y3582D03*
X1182Y3582D03*
G54D25*
X9783Y8603D03*
X9783Y7853D03*
X9586Y11298D03*
X9586Y12048D03*
G54D26*
X4646Y11574D03*
X3896Y11574D03*
G54D25*
X17376Y11301D03*
X17376Y12051D03*
X18976Y12341D03*
X18976Y13091D03*
G54D26*
X27321Y8696D03*
X28071Y8696D03*
X23719Y5807D03*
X24469Y5807D03*
X31158Y13681D03*
X30408Y13681D03*
X3896Y10393D03*
X4646Y10393D03*
G54D25*
X16596Y11281D03*
X16596Y12031D03*
X12814Y10333D03*
X12814Y11083D03*
G54D27*
X12224Y8217D03*
X13208Y8217D03*
X13405Y8217D03*
X13996Y8217D03*
X14404Y8217D03*
X14599Y8217D03*
X15974Y8217D03*
X16174Y8217D03*
X16369Y8217D03*
X15779Y8217D03*
X17944Y8217D03*
X16564Y8217D03*
X16764Y8217D03*
X16959Y8217D03*
X17154Y8217D03*
X17354Y8217D03*
X17549Y8217D03*
X17744Y8217D03*
X15584Y8217D03*
X15384Y8217D03*
X15189Y8217D03*
X14994Y8217D03*
X14794Y8217D03*
X13011Y8217D03*
X13799Y8217D03*
G54D28*
X18914Y7337D03*
X11228Y7337D03*
M02*
