G04 (created by PCBNEW (2013-07-07 BZR 4022)-stable) date 21/05/2014 18:52:46*
%MOIN*%
G04 Gerber Fmt 3.4, Leading zero omitted, Abs format*
%FSLAX34Y34*%
G01*
G70*
G90*
G04 APERTURE LIST*
%ADD10C,0.00590551*%
%ADD11C,0.011811*%
%ADD12C,0.005*%
%ADD13C,0.0039*%
%ADD14C,0.006*%
%ADD15C,0.0026*%
%ADD16C,0.004*%
%ADD17C,0.002*%
%ADD18C,0.0787402*%
%ADD19R,0.0787402X0.0787402*%
%ADD20C,0.055*%
%ADD21R,0.035X0.055*%
%ADD22R,0.06X0.06*%
%ADD23C,0.06*%
%ADD24R,0.0472X0.0472*%
%ADD25C,0.0944882*%
%ADD26R,0.0944882X0.0944882*%
%ADD27R,0.1378X0.1378*%
G04 APERTURE END LIST*
G54D10*
G54D11*
X29282Y-3641D02*
X29282Y-3360D01*
X29451Y-3697D02*
X28861Y-3501D01*
X29451Y-3304D01*
X29057Y-2854D02*
X29451Y-2854D01*
X29057Y-3107D02*
X29367Y-3107D01*
X29423Y-3079D01*
X29451Y-3023D01*
X29451Y-2938D01*
X29423Y-2882D01*
X29395Y-2854D01*
X29057Y-2657D02*
X29057Y-2432D01*
X28861Y-2573D02*
X29367Y-2573D01*
X29423Y-2544D01*
X29451Y-2488D01*
X29451Y-2432D01*
X29451Y-2151D02*
X29423Y-2207D01*
X29395Y-2235D01*
X29339Y-2263D01*
X29170Y-2263D01*
X29114Y-2235D01*
X29086Y-2207D01*
X29057Y-2151D01*
X29057Y-2066D01*
X29086Y-2010D01*
X29114Y-1982D01*
X29170Y-1954D01*
X29339Y-1954D01*
X29395Y-1982D01*
X29423Y-2010D01*
X29451Y-2066D01*
X29451Y-2151D01*
X29142Y-1504D02*
X29142Y-1701D01*
X29451Y-1701D02*
X28861Y-1701D01*
X28861Y-1420D01*
X29423Y-970D02*
X29451Y-1026D01*
X29451Y-1138D01*
X29423Y-1195D01*
X29367Y-1223D01*
X29142Y-1223D01*
X29086Y-1195D01*
X29057Y-1138D01*
X29057Y-1026D01*
X29086Y-970D01*
X29142Y-942D01*
X29198Y-942D01*
X29254Y-1223D01*
X29423Y-464D02*
X29451Y-520D01*
X29451Y-632D01*
X29423Y-688D01*
X29367Y-717D01*
X29142Y-717D01*
X29086Y-688D01*
X29057Y-632D01*
X29057Y-520D01*
X29086Y-464D01*
X29142Y-435D01*
X29198Y-435D01*
X29254Y-717D01*
X29451Y70D02*
X28861Y70D01*
X29423Y70D02*
X29451Y14D01*
X29451Y-98D01*
X29423Y-154D01*
X29395Y-182D01*
X29339Y-210D01*
X29170Y-210D01*
X29114Y-182D01*
X29086Y-154D01*
X29057Y-98D01*
X29057Y14D01*
X29086Y70D01*
X29423Y576D02*
X29451Y520D01*
X29451Y407D01*
X29423Y351D01*
X29367Y323D01*
X29142Y323D01*
X29086Y351D01*
X29057Y407D01*
X29057Y520D01*
X29086Y576D01*
X29142Y604D01*
X29198Y604D01*
X29254Y323D01*
X29451Y857D02*
X29057Y857D01*
X29170Y857D02*
X29114Y885D01*
X29086Y913D01*
X29057Y970D01*
X29057Y1026D01*
X29395Y2010D02*
X29423Y1982D01*
X29451Y1898D01*
X29451Y1841D01*
X29423Y1757D01*
X29367Y1701D01*
X29311Y1673D01*
X29198Y1645D01*
X29114Y1645D01*
X29001Y1673D01*
X28945Y1701D01*
X28889Y1757D01*
X28861Y1841D01*
X28861Y1898D01*
X28889Y1982D01*
X28917Y2010D01*
X29451Y2348D02*
X29423Y2291D01*
X29395Y2263D01*
X29339Y2235D01*
X29170Y2235D01*
X29114Y2263D01*
X29086Y2291D01*
X29057Y2348D01*
X29057Y2432D01*
X29086Y2488D01*
X29114Y2516D01*
X29170Y2544D01*
X29339Y2544D01*
X29395Y2516D01*
X29423Y2488D01*
X29451Y2432D01*
X29451Y2348D01*
X29057Y2798D02*
X29451Y2798D01*
X29114Y2798D02*
X29086Y2826D01*
X29057Y2882D01*
X29057Y2966D01*
X29086Y3023D01*
X29142Y3051D01*
X29451Y3051D01*
X29057Y3248D02*
X29057Y3473D01*
X28861Y3332D02*
X29367Y3332D01*
X29423Y3360D01*
X29451Y3416D01*
X29451Y3473D01*
X29451Y3669D02*
X29057Y3669D01*
X29170Y3669D02*
X29114Y3697D01*
X29086Y3726D01*
X29057Y3782D01*
X29057Y3838D01*
X29451Y4119D02*
X29423Y4063D01*
X29395Y4035D01*
X29339Y4007D01*
X29170Y4007D01*
X29114Y4035D01*
X29086Y4063D01*
X29057Y4119D01*
X29057Y4204D01*
X29086Y4260D01*
X29114Y4288D01*
X29170Y4316D01*
X29339Y4316D01*
X29395Y4288D01*
X29423Y4260D01*
X29451Y4204D01*
X29451Y4119D01*
X29451Y4654D02*
X29423Y4597D01*
X29367Y4569D01*
X28861Y4569D01*
X29451Y4963D02*
X29423Y4907D01*
X29367Y4879D01*
X28861Y4879D01*
X29423Y5413D02*
X29451Y5357D01*
X29451Y5244D01*
X29423Y5188D01*
X29367Y5160D01*
X29142Y5160D01*
X29086Y5188D01*
X29057Y5244D01*
X29057Y5357D01*
X29086Y5413D01*
X29142Y5441D01*
X29198Y5441D01*
X29254Y5160D01*
X29451Y5694D02*
X29057Y5694D01*
X29170Y5694D02*
X29114Y5722D01*
X29086Y5750D01*
X29057Y5807D01*
X29057Y5863D01*
X30115Y-520D02*
X30087Y-548D01*
X30059Y-604D01*
X30059Y-660D01*
X30087Y-717D01*
X30115Y-745D01*
X30171Y-773D01*
X30227Y-773D01*
X30284Y-745D01*
X30312Y-717D01*
X30340Y-660D01*
X30340Y-604D01*
X30312Y-548D01*
X30284Y-520D01*
X30059Y-520D02*
X30284Y-520D01*
X30312Y-492D01*
X30312Y-464D01*
X30284Y-407D01*
X30227Y-379D01*
X30087Y-379D01*
X30002Y-435D01*
X29946Y-520D01*
X29918Y-632D01*
X29946Y-745D01*
X30002Y-829D01*
X30087Y-885D01*
X30199Y-913D01*
X30312Y-885D01*
X30396Y-829D01*
X30452Y-745D01*
X30480Y-632D01*
X30452Y-520D01*
X30396Y-435D01*
X30396Y-126D02*
X29805Y-126D01*
X30227Y70D01*
X29805Y267D01*
X30396Y267D01*
X30340Y885D02*
X30368Y857D01*
X30396Y773D01*
X30396Y717D01*
X30368Y632D01*
X30312Y576D01*
X30255Y548D01*
X30143Y520D01*
X30059Y520D01*
X29946Y548D01*
X29890Y576D01*
X29834Y632D01*
X29805Y717D01*
X29805Y773D01*
X29834Y857D01*
X29862Y885D01*
X29805Y1138D02*
X30284Y1138D01*
X30340Y1167D01*
X30368Y1195D01*
X30396Y1251D01*
X30396Y1363D01*
X30368Y1420D01*
X30340Y1448D01*
X30284Y1476D01*
X29805Y1476D01*
X30227Y1729D02*
X30227Y2010D01*
X30396Y1673D02*
X29805Y1870D01*
X30396Y2066D01*
X30002Y2263D02*
X30593Y2263D01*
X30030Y2263D02*
X30002Y2320D01*
X30002Y2432D01*
X30030Y2488D01*
X30059Y2516D01*
X30115Y2544D01*
X30284Y2544D01*
X30340Y2516D01*
X30368Y2488D01*
X30396Y2432D01*
X30396Y2320D01*
X30368Y2263D01*
X30002Y2798D02*
X30593Y2798D01*
X30030Y2798D02*
X30002Y2854D01*
X30002Y2966D01*
X30030Y3023D01*
X30059Y3051D01*
X30115Y3079D01*
X30284Y3079D01*
X30340Y3051D01*
X30368Y3023D01*
X30396Y2966D01*
X30396Y2854D01*
X30368Y2798D01*
X30807Y-1785D02*
X30778Y-1757D01*
X30750Y-1701D01*
X30750Y-1560D01*
X30778Y-1504D01*
X30807Y-1476D01*
X30863Y-1448D01*
X30919Y-1448D01*
X31003Y-1476D01*
X31341Y-1813D01*
X31341Y-1448D01*
X30750Y-1082D02*
X30750Y-1026D01*
X30778Y-970D01*
X30807Y-942D01*
X30863Y-913D01*
X30975Y-885D01*
X31116Y-885D01*
X31228Y-913D01*
X31285Y-942D01*
X31313Y-970D01*
X31341Y-1026D01*
X31341Y-1082D01*
X31313Y-1138D01*
X31285Y-1167D01*
X31228Y-1195D01*
X31116Y-1223D01*
X30975Y-1223D01*
X30863Y-1195D01*
X30807Y-1167D01*
X30778Y-1138D01*
X30750Y-1082D01*
X31341Y-323D02*
X31341Y-660D01*
X31341Y-492D02*
X30750Y-492D01*
X30835Y-548D01*
X30891Y-604D01*
X30919Y-660D01*
X30947Y182D02*
X31341Y182D01*
X30722Y42D02*
X31144Y-98D01*
X31144Y267D01*
X31116Y492D02*
X31116Y942D01*
X30750Y1335D02*
X30750Y1392D01*
X30778Y1448D01*
X30807Y1476D01*
X30863Y1504D01*
X30975Y1532D01*
X31116Y1532D01*
X31228Y1504D01*
X31285Y1476D01*
X31313Y1448D01*
X31341Y1392D01*
X31341Y1335D01*
X31313Y1279D01*
X31285Y1251D01*
X31228Y1223D01*
X31116Y1195D01*
X30975Y1195D01*
X30863Y1223D01*
X30807Y1251D01*
X30778Y1279D01*
X30750Y1335D01*
X30750Y2066D02*
X30750Y1785D01*
X31032Y1757D01*
X31003Y1785D01*
X30975Y1841D01*
X30975Y1982D01*
X31003Y2038D01*
X31032Y2066D01*
X31088Y2095D01*
X31228Y2095D01*
X31285Y2066D01*
X31313Y2038D01*
X31341Y1982D01*
X31341Y1841D01*
X31313Y1785D01*
X31285Y1757D01*
X31116Y2348D02*
X31116Y2798D01*
X30807Y3051D02*
X30778Y3079D01*
X30750Y3135D01*
X30750Y3276D01*
X30778Y3332D01*
X30807Y3360D01*
X30863Y3388D01*
X30919Y3388D01*
X31003Y3360D01*
X31341Y3023D01*
X31341Y3388D01*
X31341Y3951D02*
X31341Y3613D01*
X31341Y3782D02*
X30750Y3782D01*
X30835Y3726D01*
X30891Y3669D01*
X30919Y3613D01*
G54D10*
X12954Y-1303D02*
G75*
G03X12954Y-1303I-1517J0D01*
G74*
G01*
G54D12*
X14000Y-3862D02*
X8877Y-3862D01*
X8877Y-3862D02*
X8877Y1255D01*
X8877Y1255D02*
X14000Y1255D01*
X14000Y-3862D02*
X14000Y1255D01*
G54D10*
X6454Y-1303D02*
G75*
G03X6454Y-1303I-1517J0D01*
G74*
G01*
G54D12*
X7500Y-3862D02*
X2377Y-3862D01*
X2377Y-3862D02*
X2377Y1255D01*
X2377Y1255D02*
X7500Y1255D01*
X7500Y-3862D02*
X7500Y1255D01*
G54D10*
X27147Y-1318D02*
G75*
G03X27147Y-1318I-1517J0D01*
G74*
G01*
G54D12*
X28192Y-3877D02*
X23070Y-3877D01*
X23070Y-3877D02*
X23070Y1240D01*
X23070Y1240D02*
X28192Y1240D01*
X28192Y-3877D02*
X28192Y1240D01*
G54D10*
X20356Y-1318D02*
G75*
G03X20356Y-1318I-1517J0D01*
G74*
G01*
G54D12*
X21401Y-3877D02*
X16279Y-3877D01*
X16279Y-3877D02*
X16279Y1240D01*
X16279Y1240D02*
X21401Y1240D01*
X21401Y-3877D02*
X21401Y1240D01*
G54D13*
X11262Y3046D02*
G75*
G03X11262Y3046I-50J0D01*
G74*
G01*
X11662Y3046D02*
X11262Y3046D01*
X11262Y3046D02*
X11262Y3646D01*
X11262Y3646D02*
X11662Y3646D01*
X12062Y3646D02*
X12462Y3646D01*
X12462Y3646D02*
X12462Y3046D01*
X12462Y3046D02*
X12062Y3046D01*
X17817Y3054D02*
G75*
G03X17817Y3054I-50J0D01*
G74*
G01*
X18217Y3054D02*
X17817Y3054D01*
X17817Y3054D02*
X17817Y3654D01*
X17817Y3654D02*
X18217Y3654D01*
X18617Y3654D02*
X19017Y3654D01*
X19017Y3654D02*
X19017Y3054D01*
X19017Y3054D02*
X18617Y3054D01*
X24419Y3046D02*
G75*
G03X24419Y3046I-50J0D01*
G74*
G01*
X24819Y3046D02*
X24419Y3046D01*
X24419Y3046D02*
X24419Y3646D01*
X24419Y3646D02*
X24819Y3646D01*
X25219Y3646D02*
X25619Y3646D01*
X25619Y3646D02*
X25619Y3046D01*
X25619Y3046D02*
X25219Y3046D01*
X4738Y3054D02*
G75*
G03X4738Y3054I-50J0D01*
G74*
G01*
X5138Y3054D02*
X4738Y3054D01*
X4738Y3054D02*
X4738Y3654D01*
X4738Y3654D02*
X5138Y3654D01*
X5538Y3654D02*
X5938Y3654D01*
X5938Y3654D02*
X5938Y3054D01*
X5938Y3054D02*
X5538Y3054D01*
G54D14*
X6346Y10673D02*
X5346Y10673D01*
X5346Y10673D02*
X5346Y12673D01*
X5346Y12673D02*
X6346Y12673D01*
X6346Y12673D02*
X6346Y10673D01*
X12181Y12665D02*
X12181Y11665D01*
X12181Y11665D02*
X10181Y11665D01*
X10181Y11665D02*
X10181Y12665D01*
X10181Y12665D02*
X12181Y12665D01*
X6724Y12673D02*
X7724Y12673D01*
X7724Y12673D02*
X7724Y10673D01*
X7724Y10673D02*
X6724Y10673D01*
X6724Y10673D02*
X6724Y12673D01*
G54D15*
X5538Y2397D02*
X5538Y2269D01*
X5538Y2269D02*
X5735Y2269D01*
X5735Y2397D02*
X5735Y2269D01*
X5538Y2397D02*
X5735Y2397D01*
X5538Y2642D02*
X5538Y2583D01*
X5538Y2583D02*
X5637Y2583D01*
X5637Y2642D02*
X5637Y2583D01*
X5538Y2642D02*
X5637Y2642D01*
X5538Y2447D02*
X5538Y2388D01*
X5538Y2388D02*
X5637Y2388D01*
X5637Y2447D02*
X5637Y2388D01*
X5538Y2447D02*
X5637Y2447D01*
X5538Y2593D02*
X5538Y2437D01*
X5538Y2437D02*
X5607Y2437D01*
X5607Y2593D02*
X5607Y2437D01*
X5538Y2593D02*
X5607Y2593D01*
X4949Y2397D02*
X4949Y2269D01*
X4949Y2269D02*
X5146Y2269D01*
X5146Y2397D02*
X5146Y2269D01*
X4949Y2397D02*
X5146Y2397D01*
X4949Y2761D02*
X4949Y2633D01*
X4949Y2633D02*
X5146Y2633D01*
X5146Y2761D02*
X5146Y2633D01*
X4949Y2761D02*
X5146Y2761D01*
X5047Y2447D02*
X5047Y2388D01*
X5047Y2388D02*
X5146Y2388D01*
X5146Y2447D02*
X5146Y2388D01*
X5047Y2447D02*
X5146Y2447D01*
X5047Y2642D02*
X5047Y2583D01*
X5047Y2583D02*
X5146Y2583D01*
X5146Y2642D02*
X5146Y2583D01*
X5047Y2642D02*
X5146Y2642D01*
X5077Y2593D02*
X5077Y2437D01*
X5077Y2437D02*
X5146Y2437D01*
X5146Y2593D02*
X5146Y2437D01*
X5077Y2593D02*
X5146Y2593D01*
X5342Y2554D02*
X5342Y2476D01*
X5342Y2476D02*
X5420Y2476D01*
X5420Y2554D02*
X5420Y2476D01*
X5342Y2554D02*
X5420Y2554D01*
X5538Y2751D02*
X5538Y2633D01*
X5538Y2633D02*
X5656Y2633D01*
X5656Y2751D02*
X5656Y2633D01*
X5538Y2751D02*
X5656Y2751D01*
X5706Y2761D02*
X5706Y2672D01*
X5706Y2672D02*
X5735Y2672D01*
X5735Y2761D02*
X5735Y2672D01*
X5706Y2761D02*
X5735Y2761D01*
G54D16*
X5548Y2289D02*
X5136Y2289D01*
X5146Y2741D02*
X5706Y2741D01*
G54D17*
X5704Y2692D02*
G75*
G03X5704Y2692I-28J0D01*
G74*
G01*
G54D16*
X5735Y2652D02*
G75*
G03X5735Y2378I0J-137D01*
G74*
G01*
X4949Y2378D02*
G75*
G03X4949Y2652I0J137D01*
G74*
G01*
G54D15*
X12081Y2303D02*
X12081Y2175D01*
X12081Y2175D02*
X12278Y2175D01*
X12278Y2303D02*
X12278Y2175D01*
X12081Y2303D02*
X12278Y2303D01*
X12081Y2548D02*
X12081Y2489D01*
X12081Y2489D02*
X12180Y2489D01*
X12180Y2548D02*
X12180Y2489D01*
X12081Y2548D02*
X12180Y2548D01*
X12081Y2353D02*
X12081Y2294D01*
X12081Y2294D02*
X12180Y2294D01*
X12180Y2353D02*
X12180Y2294D01*
X12081Y2353D02*
X12180Y2353D01*
X12081Y2499D02*
X12081Y2343D01*
X12081Y2343D02*
X12150Y2343D01*
X12150Y2499D02*
X12150Y2343D01*
X12081Y2499D02*
X12150Y2499D01*
X11492Y2303D02*
X11492Y2175D01*
X11492Y2175D02*
X11689Y2175D01*
X11689Y2303D02*
X11689Y2175D01*
X11492Y2303D02*
X11689Y2303D01*
X11492Y2667D02*
X11492Y2539D01*
X11492Y2539D02*
X11689Y2539D01*
X11689Y2667D02*
X11689Y2539D01*
X11492Y2667D02*
X11689Y2667D01*
X11590Y2353D02*
X11590Y2294D01*
X11590Y2294D02*
X11689Y2294D01*
X11689Y2353D02*
X11689Y2294D01*
X11590Y2353D02*
X11689Y2353D01*
X11590Y2548D02*
X11590Y2489D01*
X11590Y2489D02*
X11689Y2489D01*
X11689Y2548D02*
X11689Y2489D01*
X11590Y2548D02*
X11689Y2548D01*
X11620Y2499D02*
X11620Y2343D01*
X11620Y2343D02*
X11689Y2343D01*
X11689Y2499D02*
X11689Y2343D01*
X11620Y2499D02*
X11689Y2499D01*
X11885Y2460D02*
X11885Y2382D01*
X11885Y2382D02*
X11963Y2382D01*
X11963Y2460D02*
X11963Y2382D01*
X11885Y2460D02*
X11963Y2460D01*
X12081Y2657D02*
X12081Y2539D01*
X12081Y2539D02*
X12199Y2539D01*
X12199Y2657D02*
X12199Y2539D01*
X12081Y2657D02*
X12199Y2657D01*
X12249Y2667D02*
X12249Y2578D01*
X12249Y2578D02*
X12278Y2578D01*
X12278Y2667D02*
X12278Y2578D01*
X12249Y2667D02*
X12278Y2667D01*
G54D16*
X12091Y2195D02*
X11679Y2195D01*
X11689Y2647D02*
X12249Y2647D01*
G54D17*
X12248Y2598D02*
G75*
G03X12248Y2598I-28J0D01*
G74*
G01*
G54D16*
X12278Y2558D02*
G75*
G03X12278Y2284I0J-137D01*
G74*
G01*
X11492Y2284D02*
G75*
G03X11492Y2558I0J137D01*
G74*
G01*
G54D15*
X25235Y2362D02*
X25235Y2234D01*
X25235Y2234D02*
X25432Y2234D01*
X25432Y2362D02*
X25432Y2234D01*
X25235Y2362D02*
X25432Y2362D01*
X25235Y2607D02*
X25235Y2548D01*
X25235Y2548D02*
X25334Y2548D01*
X25334Y2607D02*
X25334Y2548D01*
X25235Y2607D02*
X25334Y2607D01*
X25235Y2412D02*
X25235Y2353D01*
X25235Y2353D02*
X25334Y2353D01*
X25334Y2412D02*
X25334Y2353D01*
X25235Y2412D02*
X25334Y2412D01*
X25235Y2558D02*
X25235Y2402D01*
X25235Y2402D02*
X25304Y2402D01*
X25304Y2558D02*
X25304Y2402D01*
X25235Y2558D02*
X25304Y2558D01*
X24646Y2362D02*
X24646Y2234D01*
X24646Y2234D02*
X24843Y2234D01*
X24843Y2362D02*
X24843Y2234D01*
X24646Y2362D02*
X24843Y2362D01*
X24646Y2726D02*
X24646Y2598D01*
X24646Y2598D02*
X24843Y2598D01*
X24843Y2726D02*
X24843Y2598D01*
X24646Y2726D02*
X24843Y2726D01*
X24744Y2412D02*
X24744Y2353D01*
X24744Y2353D02*
X24843Y2353D01*
X24843Y2412D02*
X24843Y2353D01*
X24744Y2412D02*
X24843Y2412D01*
X24744Y2607D02*
X24744Y2548D01*
X24744Y2548D02*
X24843Y2548D01*
X24843Y2607D02*
X24843Y2548D01*
X24744Y2607D02*
X24843Y2607D01*
X24774Y2558D02*
X24774Y2402D01*
X24774Y2402D02*
X24843Y2402D01*
X24843Y2558D02*
X24843Y2402D01*
X24774Y2558D02*
X24843Y2558D01*
X25039Y2519D02*
X25039Y2441D01*
X25039Y2441D02*
X25117Y2441D01*
X25117Y2519D02*
X25117Y2441D01*
X25039Y2519D02*
X25117Y2519D01*
X25235Y2716D02*
X25235Y2598D01*
X25235Y2598D02*
X25353Y2598D01*
X25353Y2716D02*
X25353Y2598D01*
X25235Y2716D02*
X25353Y2716D01*
X25403Y2726D02*
X25403Y2637D01*
X25403Y2637D02*
X25432Y2637D01*
X25432Y2726D02*
X25432Y2637D01*
X25403Y2726D02*
X25432Y2726D01*
G54D16*
X25245Y2254D02*
X24833Y2254D01*
X24843Y2706D02*
X25403Y2706D01*
G54D17*
X25401Y2657D02*
G75*
G03X25401Y2657I-28J0D01*
G74*
G01*
G54D16*
X25432Y2617D02*
G75*
G03X25432Y2343I0J-137D01*
G74*
G01*
X24646Y2343D02*
G75*
G03X24646Y2617I0J137D01*
G74*
G01*
G54D15*
X18636Y2311D02*
X18636Y2183D01*
X18636Y2183D02*
X18833Y2183D01*
X18833Y2311D02*
X18833Y2183D01*
X18636Y2311D02*
X18833Y2311D01*
X18636Y2556D02*
X18636Y2497D01*
X18636Y2497D02*
X18735Y2497D01*
X18735Y2556D02*
X18735Y2497D01*
X18636Y2556D02*
X18735Y2556D01*
X18636Y2361D02*
X18636Y2302D01*
X18636Y2302D02*
X18735Y2302D01*
X18735Y2361D02*
X18735Y2302D01*
X18636Y2361D02*
X18735Y2361D01*
X18636Y2507D02*
X18636Y2351D01*
X18636Y2351D02*
X18705Y2351D01*
X18705Y2507D02*
X18705Y2351D01*
X18636Y2507D02*
X18705Y2507D01*
X18047Y2311D02*
X18047Y2183D01*
X18047Y2183D02*
X18244Y2183D01*
X18244Y2311D02*
X18244Y2183D01*
X18047Y2311D02*
X18244Y2311D01*
X18047Y2675D02*
X18047Y2547D01*
X18047Y2547D02*
X18244Y2547D01*
X18244Y2675D02*
X18244Y2547D01*
X18047Y2675D02*
X18244Y2675D01*
X18145Y2361D02*
X18145Y2302D01*
X18145Y2302D02*
X18244Y2302D01*
X18244Y2361D02*
X18244Y2302D01*
X18145Y2361D02*
X18244Y2361D01*
X18145Y2556D02*
X18145Y2497D01*
X18145Y2497D02*
X18244Y2497D01*
X18244Y2556D02*
X18244Y2497D01*
X18145Y2556D02*
X18244Y2556D01*
X18175Y2507D02*
X18175Y2351D01*
X18175Y2351D02*
X18244Y2351D01*
X18244Y2507D02*
X18244Y2351D01*
X18175Y2507D02*
X18244Y2507D01*
X18440Y2468D02*
X18440Y2390D01*
X18440Y2390D02*
X18518Y2390D01*
X18518Y2468D02*
X18518Y2390D01*
X18440Y2468D02*
X18518Y2468D01*
X18636Y2665D02*
X18636Y2547D01*
X18636Y2547D02*
X18754Y2547D01*
X18754Y2665D02*
X18754Y2547D01*
X18636Y2665D02*
X18754Y2665D01*
X18804Y2675D02*
X18804Y2586D01*
X18804Y2586D02*
X18833Y2586D01*
X18833Y2675D02*
X18833Y2586D01*
X18804Y2675D02*
X18833Y2675D01*
G54D16*
X18646Y2203D02*
X18234Y2203D01*
X18244Y2655D02*
X18804Y2655D01*
G54D17*
X18803Y2606D02*
G75*
G03X18803Y2606I-28J0D01*
G74*
G01*
G54D16*
X18833Y2566D02*
G75*
G03X18833Y2292I0J-137D01*
G74*
G01*
X18047Y2292D02*
G75*
G03X18047Y2566I0J137D01*
G74*
G01*
G54D12*
X11056Y-1548D02*
X11099Y-1562D01*
X11170Y-1562D01*
X11199Y-1548D01*
X11213Y-1533D01*
X11228Y-1505D01*
X11228Y-1476D01*
X11213Y-1448D01*
X11199Y-1433D01*
X11170Y-1419D01*
X11113Y-1405D01*
X11085Y-1390D01*
X11070Y-1376D01*
X11056Y-1348D01*
X11056Y-1319D01*
X11070Y-1290D01*
X11085Y-1276D01*
X11113Y-1262D01*
X11185Y-1262D01*
X11228Y-1276D01*
X11328Y-1262D02*
X11399Y-1562D01*
X11456Y-1348D01*
X11513Y-1562D01*
X11585Y-1262D01*
X11685Y-1290D02*
X11699Y-1276D01*
X11728Y-1262D01*
X11799Y-1262D01*
X11828Y-1276D01*
X11842Y-1290D01*
X11856Y-1319D01*
X11856Y-1348D01*
X11842Y-1390D01*
X11670Y-1562D01*
X11856Y-1562D01*
X4556Y-1548D02*
X4599Y-1562D01*
X4670Y-1562D01*
X4699Y-1548D01*
X4713Y-1533D01*
X4728Y-1505D01*
X4728Y-1476D01*
X4713Y-1448D01*
X4699Y-1433D01*
X4670Y-1419D01*
X4613Y-1405D01*
X4585Y-1390D01*
X4570Y-1376D01*
X4556Y-1348D01*
X4556Y-1319D01*
X4570Y-1290D01*
X4585Y-1276D01*
X4613Y-1262D01*
X4685Y-1262D01*
X4728Y-1276D01*
X4828Y-1262D02*
X4899Y-1562D01*
X4956Y-1348D01*
X5013Y-1562D01*
X5085Y-1262D01*
X5356Y-1562D02*
X5185Y-1562D01*
X5270Y-1562D02*
X5270Y-1262D01*
X5242Y-1305D01*
X5213Y-1333D01*
X5185Y-1348D01*
X25249Y-1563D02*
X25292Y-1578D01*
X25363Y-1578D01*
X25392Y-1563D01*
X25406Y-1549D01*
X25421Y-1520D01*
X25421Y-1492D01*
X25406Y-1463D01*
X25392Y-1449D01*
X25363Y-1435D01*
X25306Y-1420D01*
X25278Y-1406D01*
X25263Y-1392D01*
X25249Y-1363D01*
X25249Y-1335D01*
X25263Y-1306D01*
X25278Y-1292D01*
X25306Y-1278D01*
X25378Y-1278D01*
X25421Y-1292D01*
X25521Y-1278D02*
X25592Y-1578D01*
X25649Y-1363D01*
X25706Y-1578D01*
X25778Y-1278D01*
X26021Y-1378D02*
X26021Y-1578D01*
X25949Y-1263D02*
X25878Y-1478D01*
X26063Y-1478D01*
X18458Y-1563D02*
X18501Y-1578D01*
X18572Y-1578D01*
X18601Y-1563D01*
X18615Y-1549D01*
X18629Y-1520D01*
X18629Y-1492D01*
X18615Y-1463D01*
X18601Y-1449D01*
X18572Y-1435D01*
X18515Y-1420D01*
X18486Y-1406D01*
X18472Y-1392D01*
X18458Y-1363D01*
X18458Y-1335D01*
X18472Y-1306D01*
X18486Y-1292D01*
X18515Y-1278D01*
X18586Y-1278D01*
X18629Y-1292D01*
X18729Y-1278D02*
X18801Y-1578D01*
X18858Y-1363D01*
X18915Y-1578D01*
X18986Y-1278D01*
X19072Y-1278D02*
X19258Y-1278D01*
X19158Y-1392D01*
X19201Y-1392D01*
X19229Y-1406D01*
X19243Y-1420D01*
X19258Y-1449D01*
X19258Y-1520D01*
X19243Y-1549D01*
X19229Y-1563D01*
X19201Y-1578D01*
X19115Y-1578D01*
X19086Y-1563D01*
X19072Y-1549D01*
X10757Y3205D02*
X10657Y3348D01*
X10585Y3205D02*
X10585Y3505D01*
X10699Y3505D01*
X10728Y3491D01*
X10742Y3476D01*
X10757Y3448D01*
X10757Y3405D01*
X10742Y3376D01*
X10728Y3362D01*
X10699Y3348D01*
X10585Y3348D01*
X11014Y3405D02*
X11014Y3205D01*
X10942Y3519D02*
X10871Y3305D01*
X11057Y3305D01*
X17174Y3225D02*
X17074Y3367D01*
X17002Y3225D02*
X17002Y3525D01*
X17117Y3525D01*
X17145Y3510D01*
X17160Y3496D01*
X17174Y3467D01*
X17174Y3425D01*
X17160Y3396D01*
X17145Y3382D01*
X17117Y3367D01*
X17002Y3367D01*
X17445Y3525D02*
X17302Y3525D01*
X17288Y3382D01*
X17302Y3396D01*
X17331Y3410D01*
X17402Y3410D01*
X17431Y3396D01*
X17445Y3382D01*
X17460Y3353D01*
X17460Y3282D01*
X17445Y3253D01*
X17431Y3239D01*
X17402Y3225D01*
X17331Y3225D01*
X17302Y3239D01*
X17288Y3253D01*
X23788Y3106D02*
X23688Y3249D01*
X23617Y3106D02*
X23617Y3406D01*
X23731Y3406D01*
X23760Y3392D01*
X23774Y3378D01*
X23788Y3349D01*
X23788Y3306D01*
X23774Y3278D01*
X23760Y3264D01*
X23731Y3249D01*
X23617Y3249D01*
X24045Y3406D02*
X23988Y3406D01*
X23960Y3392D01*
X23945Y3378D01*
X23917Y3335D01*
X23902Y3278D01*
X23902Y3164D01*
X23917Y3135D01*
X23931Y3121D01*
X23960Y3106D01*
X24017Y3106D01*
X24045Y3121D01*
X24060Y3135D01*
X24074Y3164D01*
X24074Y3235D01*
X24060Y3264D01*
X24045Y3278D01*
X24017Y3292D01*
X23960Y3292D01*
X23931Y3278D01*
X23917Y3264D01*
X23902Y3235D01*
X4083Y3225D02*
X3983Y3367D01*
X3912Y3225D02*
X3912Y3525D01*
X4026Y3525D01*
X4055Y3510D01*
X4069Y3496D01*
X4083Y3467D01*
X4083Y3425D01*
X4069Y3396D01*
X4055Y3382D01*
X4026Y3367D01*
X3912Y3367D01*
X4183Y3525D02*
X4369Y3525D01*
X4269Y3410D01*
X4312Y3410D01*
X4341Y3396D01*
X4355Y3382D01*
X4369Y3353D01*
X4369Y3282D01*
X4355Y3253D01*
X4341Y3239D01*
X4312Y3225D01*
X4226Y3225D01*
X4198Y3239D01*
X4183Y3253D01*
X4978Y11442D02*
X5193Y11442D01*
X5236Y11428D01*
X5264Y11400D01*
X5278Y11357D01*
X5278Y11328D01*
X5278Y11585D02*
X4978Y11585D01*
X4978Y11700D01*
X4993Y11728D01*
X5007Y11742D01*
X5036Y11757D01*
X5078Y11757D01*
X5107Y11742D01*
X5121Y11728D01*
X5136Y11700D01*
X5136Y11585D01*
X4978Y11857D02*
X4978Y12042D01*
X5093Y11942D01*
X5093Y11985D01*
X5107Y12014D01*
X5121Y12028D01*
X5150Y12042D01*
X5221Y12042D01*
X5250Y12028D01*
X5264Y12014D01*
X5278Y11985D01*
X5278Y11900D01*
X5264Y11871D01*
X5250Y11857D01*
X12663Y12284D02*
X12663Y12070D01*
X12649Y12027D01*
X12620Y11999D01*
X12577Y11984D01*
X12549Y11984D01*
X12806Y11984D02*
X12806Y12284D01*
X12920Y12284D01*
X12949Y12270D01*
X12963Y12256D01*
X12977Y12227D01*
X12977Y12184D01*
X12963Y12156D01*
X12949Y12142D01*
X12920Y12127D01*
X12806Y12127D01*
X13091Y12256D02*
X13106Y12270D01*
X13134Y12284D01*
X13206Y12284D01*
X13234Y12270D01*
X13249Y12256D01*
X13263Y12227D01*
X13263Y12199D01*
X13249Y12156D01*
X13077Y11984D01*
X13263Y11984D01*
X7911Y11442D02*
X8126Y11442D01*
X8169Y11428D01*
X8197Y11400D01*
X8211Y11357D01*
X8211Y11328D01*
X8211Y11585D02*
X7911Y11585D01*
X7911Y11700D01*
X7926Y11728D01*
X7940Y11742D01*
X7969Y11757D01*
X8011Y11757D01*
X8040Y11742D01*
X8054Y11728D01*
X8069Y11700D01*
X8069Y11585D01*
X8211Y12042D02*
X8211Y11871D01*
X8211Y11957D02*
X7911Y11957D01*
X7954Y11928D01*
X7983Y11900D01*
X7997Y11871D01*
X3971Y2417D02*
X3971Y2717D01*
X4042Y2717D01*
X4085Y2703D01*
X4114Y2675D01*
X4128Y2646D01*
X4142Y2589D01*
X4142Y2546D01*
X4128Y2489D01*
X4114Y2460D01*
X4085Y2432D01*
X4042Y2417D01*
X3971Y2417D01*
X4242Y2717D02*
X4428Y2717D01*
X4328Y2603D01*
X4371Y2603D01*
X4400Y2589D01*
X4414Y2575D01*
X4428Y2546D01*
X4428Y2475D01*
X4414Y2446D01*
X4400Y2432D01*
X4371Y2417D01*
X4285Y2417D01*
X4257Y2432D01*
X4242Y2446D01*
X10605Y2221D02*
X10605Y2521D01*
X10676Y2521D01*
X10719Y2506D01*
X10748Y2478D01*
X10762Y2449D01*
X10776Y2392D01*
X10776Y2349D01*
X10762Y2292D01*
X10748Y2263D01*
X10719Y2235D01*
X10676Y2221D01*
X10605Y2221D01*
X11033Y2421D02*
X11033Y2221D01*
X10962Y2535D02*
X10891Y2321D01*
X11076Y2321D01*
X23577Y2319D02*
X23577Y2619D01*
X23649Y2619D01*
X23692Y2605D01*
X23720Y2576D01*
X23734Y2548D01*
X23749Y2490D01*
X23749Y2448D01*
X23734Y2390D01*
X23720Y2362D01*
X23692Y2333D01*
X23649Y2319D01*
X23577Y2319D01*
X23863Y2590D02*
X23877Y2605D01*
X23906Y2619D01*
X23977Y2619D01*
X24006Y2605D01*
X24020Y2590D01*
X24034Y2562D01*
X24034Y2533D01*
X24020Y2490D01*
X23849Y2319D01*
X24034Y2319D01*
X17081Y2260D02*
X17081Y2560D01*
X17153Y2560D01*
X17196Y2546D01*
X17224Y2517D01*
X17238Y2489D01*
X17253Y2431D01*
X17253Y2389D01*
X17238Y2331D01*
X17224Y2303D01*
X17196Y2274D01*
X17153Y2260D01*
X17081Y2260D01*
X17538Y2260D02*
X17367Y2260D01*
X17453Y2260D02*
X17453Y2560D01*
X17424Y2517D01*
X17396Y2489D01*
X17367Y2474D01*
%LPC*%
G54D18*
X1496Y6196D03*
G54D19*
X1496Y7377D03*
G54D18*
X1496Y5015D03*
G54D20*
X17346Y13946D03*
X17346Y15946D03*
X14346Y13946D03*
X14346Y15946D03*
G54D18*
X8877Y-2244D03*
X8877Y-358D03*
X14000Y-2244D03*
X14000Y-358D03*
X2377Y-2244D03*
X2377Y-358D03*
X7500Y-2244D03*
X7500Y-358D03*
X23070Y-2259D03*
X23070Y-374D03*
X28192Y-2259D03*
X28192Y-374D03*
X16279Y-2259D03*
X16279Y-374D03*
X21401Y-2259D03*
X21401Y-374D03*
G54D21*
X11487Y3346D03*
X12237Y3346D03*
X18042Y3354D03*
X18792Y3354D03*
X24644Y3346D03*
X25394Y3346D03*
X4963Y3354D03*
X5713Y3354D03*
G54D22*
X5846Y11173D03*
G54D23*
X5846Y12173D03*
G54D22*
X11681Y12165D03*
G54D23*
X10681Y12165D03*
G54D22*
X7224Y12173D03*
G54D23*
X7224Y11173D03*
G54D24*
X4929Y2515D03*
X5755Y2515D03*
X11472Y2421D03*
X12298Y2421D03*
X24626Y2480D03*
X25452Y2480D03*
X18027Y2429D03*
X18853Y2429D03*
G54D25*
X-3Y7D03*
G54D26*
X-3Y1385D03*
G54D27*
X2437Y11196D03*
X75Y11196D03*
X1256Y13046D03*
G54D23*
X27448Y14716D03*
X28448Y15716D03*
G54D22*
X20448Y15716D03*
G54D23*
X20448Y14716D03*
X21448Y15716D03*
X21448Y14716D03*
X22448Y15716D03*
X22448Y14716D03*
X23448Y15716D03*
X23448Y14716D03*
X24448Y15716D03*
X24448Y14716D03*
X25448Y15716D03*
X25448Y14716D03*
X26448Y15716D03*
X26448Y14716D03*
X27448Y15716D03*
X28448Y14716D03*
X31279Y11562D03*
X30279Y12562D03*
G54D22*
X30279Y4562D03*
G54D23*
X31279Y4562D03*
X30279Y5562D03*
X31279Y5562D03*
X30279Y6562D03*
X31279Y6562D03*
X30279Y7562D03*
X31279Y7562D03*
X30279Y8562D03*
X31279Y8562D03*
X30279Y9562D03*
X31279Y9562D03*
X30279Y10562D03*
X31279Y10562D03*
X30279Y11562D03*
X31279Y12562D03*
M02*
