G04 (created by PCBNEW (2013-07-07 BZR 4022)-stable) date 21/05/2014 18:52:46*
%MOIN*%
G04 Gerber Fmt 3.4, Leading zero omitted, Abs format*
%FSLAX34Y34*%
G01*
G70*
G90*
G04 APERTURE LIST*
%ADD10C,0.00590551*%
%ADD11C,0.01*%
%ADD12C,0.016*%
%ADD13C,0.008*%
%ADD14C,0.012*%
%ADD15C,0.005*%
%ADD16C,0.0039*%
%ADD17C,0.0075*%
%ADD18C,0.015*%
%ADD19C,0.0593*%
%ADD20R,0.0098X0.06*%
%ADD21O,0.0098X0.06*%
%ADD22O,0.06X0.0098*%
%ADD23C,0.0787402*%
%ADD24R,0.0787402X0.0787402*%
%ADD25C,0.055*%
%ADD26R,0.0394X0.0236*%
%ADD27R,0.06X0.08*%
%ADD28R,0.08X0.06*%
%ADD29R,0.055X0.035*%
%ADD30R,0.035X0.055*%
%ADD31R,0.0255906X0.0492126*%
%ADD32R,0.018X0.028*%
%ADD33R,0.19685X0.255906*%
%ADD34R,0.06X0.06*%
%ADD35C,0.06*%
%ADD36C,0.0944882*%
%ADD37R,0.0944882X0.0944882*%
%ADD38R,0.071X0.063*%
%ADD39R,0.063X0.071*%
%ADD40R,0.059X0.0512*%
%ADD41R,0.0512X0.059*%
%ADD42R,0.1378X0.1378*%
%ADD43R,0.01X0.08*%
%ADD44R,0.1X0.13*%
G04 APERTURE END LIST*
G54D10*
G54D11*
X9503Y13224D02*
X13253Y13224D01*
X7503Y13224D02*
X3753Y13224D01*
X9503Y12974D02*
X3503Y12974D01*
X13503Y16474D02*
X3503Y16474D01*
X13253Y16224D02*
X3753Y16224D01*
X13503Y12974D02*
X9503Y12974D01*
X3503Y16474D02*
X3503Y12974D01*
X3753Y13224D02*
X3753Y16224D01*
X3753Y13224D02*
X3503Y12974D01*
X3753Y16224D02*
X3503Y16474D01*
X13253Y16224D02*
X13503Y16474D01*
X7503Y12974D02*
X7503Y13224D01*
X13253Y16224D02*
X13253Y13224D01*
X13253Y13224D02*
X13503Y12974D01*
X9503Y13224D02*
X9503Y12974D01*
X13503Y16474D02*
X13503Y12974D01*
G54D12*
X12455Y13949D02*
X12180Y13528D01*
X12180Y13528D02*
X11904Y13949D01*
X11904Y13949D02*
X12455Y13949D01*
G54D13*
X25773Y8235D02*
G75*
G03X25773Y8235I-150J0D01*
G74*
G01*
X22023Y11835D02*
X26023Y11835D01*
X26023Y11835D02*
X26023Y8085D01*
X26023Y8085D02*
X25773Y7835D01*
X25773Y7835D02*
X22023Y7835D01*
X22023Y7835D02*
X22023Y11835D01*
G54D14*
X-3129Y6846D02*
X-3425Y7082D01*
X-3425Y7082D02*
X-3090Y7456D01*
X-3129Y6846D02*
X-3405Y6610D01*
X-3405Y6610D02*
X-3110Y6196D01*
X1503Y7627D02*
X1503Y7127D01*
X1496Y7127D02*
X590Y7127D01*
X1496Y7627D02*
X590Y7627D01*
X590Y6446D02*
X1496Y6446D01*
X1503Y6446D02*
X1503Y5946D01*
X1496Y5946D02*
X590Y5946D01*
X590Y5265D02*
X1496Y5265D01*
X1503Y5265D02*
X1503Y4765D01*
X1496Y4765D02*
X590Y4765D01*
X590Y8362D02*
X590Y4031D01*
X590Y4031D02*
X-1574Y4031D01*
X-1574Y4031D02*
X-1574Y8362D01*
X-1574Y8362D02*
X590Y8362D01*
X-1574Y7446D02*
X-3110Y7446D01*
X-3110Y6196D02*
X-1574Y6196D01*
G54D15*
X16846Y14946D02*
G75*
G03X16846Y14946I-999J0D01*
G74*
G01*
X14346Y13446D02*
X17346Y13446D01*
X17346Y13446D02*
X17346Y16446D01*
X17346Y16446D02*
X14346Y16446D01*
X14346Y13446D02*
X14346Y16446D01*
X3070Y963D02*
X3330Y963D01*
X3070Y1713D02*
X3330Y1713D01*
X2520Y1338D02*
X2260Y1338D01*
X2520Y1928D02*
X2520Y748D01*
X2520Y748D02*
X3070Y748D01*
X3070Y748D02*
X3070Y1928D01*
X3070Y1928D02*
X2520Y1928D01*
X7441Y10276D02*
X7181Y10276D01*
X7441Y9526D02*
X7181Y9526D01*
X7991Y9901D02*
X8251Y9901D01*
X7991Y9311D02*
X7991Y10491D01*
X7991Y10491D02*
X7441Y10491D01*
X7441Y10491D02*
X7441Y9311D01*
X7441Y9311D02*
X7991Y9311D01*
X11042Y9526D02*
X11302Y9526D01*
X11042Y10276D02*
X11302Y10276D01*
X10492Y9901D02*
X10232Y9901D01*
X10492Y10491D02*
X10492Y9311D01*
X10492Y9311D02*
X11042Y9311D01*
X11042Y9311D02*
X11042Y10491D01*
X11042Y10491D02*
X10492Y10491D01*
X17756Y13326D02*
X17756Y12426D01*
X17756Y12426D02*
X17106Y12426D01*
X16406Y13326D02*
X15756Y13326D01*
X15756Y13326D02*
X15756Y12426D01*
X15756Y12426D02*
X16406Y12426D01*
X17106Y13326D02*
X17756Y13326D01*
X15656Y13326D02*
X15656Y12426D01*
X15656Y12426D02*
X15006Y12426D01*
X14306Y13326D02*
X13656Y13326D01*
X13656Y13326D02*
X13656Y12426D01*
X13656Y12426D02*
X14306Y12426D01*
X15006Y13326D02*
X15656Y13326D01*
X1670Y-350D02*
X770Y-350D01*
X770Y-350D02*
X770Y299D01*
X1670Y999D02*
X1670Y1649D01*
X1670Y1649D02*
X770Y1649D01*
X770Y1649D02*
X770Y999D01*
X1670Y299D02*
X1670Y-350D01*
X732Y2128D02*
X732Y3028D01*
X732Y3028D02*
X1382Y3028D01*
X2082Y2128D02*
X2732Y2128D01*
X2732Y2128D02*
X2732Y3028D01*
X2732Y3028D02*
X2082Y3028D01*
X1382Y2128D02*
X732Y2128D01*
G54D16*
X9139Y9251D02*
G75*
G03X9139Y9251I-50J0D01*
G74*
G01*
X9089Y9701D02*
X9089Y9301D01*
X9089Y9301D02*
X9689Y9301D01*
X9689Y9301D02*
X9689Y9701D01*
X9689Y10101D02*
X9689Y10501D01*
X9689Y10501D02*
X9089Y10501D01*
X9089Y10501D02*
X9089Y10101D01*
X8155Y11023D02*
G75*
G03X8155Y11023I-50J0D01*
G74*
G01*
X8105Y11473D02*
X8105Y11073D01*
X8105Y11073D02*
X8705Y11073D01*
X8705Y11073D02*
X8705Y11473D01*
X8705Y11873D02*
X8705Y12273D01*
X8705Y12273D02*
X8105Y12273D01*
X8105Y12273D02*
X8105Y11873D01*
X17820Y14330D02*
G75*
G03X17820Y14330I-50J0D01*
G74*
G01*
X17770Y14780D02*
X17770Y14380D01*
X17770Y14380D02*
X18370Y14380D01*
X18370Y14380D02*
X18370Y14780D01*
X18370Y15180D02*
X18370Y15580D01*
X18370Y15580D02*
X17770Y15580D01*
X17770Y15580D02*
X17770Y15180D01*
X5266Y10205D02*
G75*
G03X5266Y10205I-50J0D01*
G74*
G01*
X5666Y10205D02*
X5266Y10205D01*
X5266Y10205D02*
X5266Y9605D01*
X5266Y9605D02*
X5666Y9605D01*
X6066Y9605D02*
X6466Y9605D01*
X6466Y9605D02*
X6466Y10205D01*
X6466Y10205D02*
X6066Y10205D01*
X17946Y12066D02*
G75*
G03X17946Y12066I-50J0D01*
G74*
G01*
X17896Y12516D02*
X17896Y12116D01*
X17896Y12116D02*
X18496Y12116D01*
X18496Y12116D02*
X18496Y12516D01*
X18496Y12916D02*
X18496Y13316D01*
X18496Y13316D02*
X17896Y13316D01*
X17896Y13316D02*
X17896Y12916D01*
X15626Y10986D02*
G75*
G03X15626Y10986I-50J0D01*
G74*
G01*
X15576Y11436D02*
X15576Y11036D01*
X15576Y11036D02*
X16176Y11036D01*
X16176Y11036D02*
X16176Y11436D01*
X16176Y11836D02*
X16176Y12236D01*
X16176Y12236D02*
X15576Y12236D01*
X15576Y12236D02*
X15576Y11836D01*
X3923Y688D02*
G75*
G03X3923Y688I-50J0D01*
G74*
G01*
X3873Y1138D02*
X3873Y738D01*
X3873Y738D02*
X4473Y738D01*
X4473Y738D02*
X4473Y1138D01*
X4473Y1538D02*
X4473Y1938D01*
X4473Y1938D02*
X3873Y1938D01*
X3873Y1938D02*
X3873Y1538D01*
G54D10*
X3080Y8494D02*
X5423Y8494D01*
X5423Y8494D02*
X5423Y5836D01*
X5423Y5836D02*
X3090Y5836D01*
X3080Y8494D02*
X3080Y5826D01*
G54D15*
X3347Y8749D02*
X3347Y8969D01*
G54D10*
X6663Y8513D02*
X9005Y8513D01*
X9005Y8513D02*
X9005Y5856D01*
X9005Y5856D02*
X6673Y5856D01*
X6663Y8513D02*
X6663Y5846D01*
G54D15*
X6930Y8768D02*
X6930Y8988D01*
G54D17*
X-2917Y2370D02*
X-2917Y-976D01*
X468Y2370D02*
X-2917Y2370D01*
X-1696Y2370D02*
X-1696Y-976D01*
X468Y-976D02*
X-2917Y-976D01*
X468Y-976D02*
X468Y2370D01*
G54D15*
X18656Y15351D02*
X19296Y15351D01*
X19296Y14451D02*
X18656Y14451D01*
X19296Y14271D02*
X18656Y14271D01*
X18656Y14271D02*
X18656Y15531D01*
X18656Y15531D02*
X19296Y15531D01*
X19296Y15531D02*
X19296Y14271D01*
X2182Y3902D02*
X2182Y3262D01*
X1282Y3262D02*
X1282Y3902D01*
X1102Y3262D02*
X1102Y3902D01*
X1102Y3902D02*
X2362Y3902D01*
X2362Y3902D02*
X2362Y3262D01*
X2362Y3262D02*
X1102Y3262D01*
X10033Y8478D02*
X9533Y8478D01*
X10033Y7978D02*
X9543Y7978D01*
X10033Y7828D02*
X10033Y8628D01*
X10033Y8628D02*
X9533Y8628D01*
X9533Y8628D02*
X9533Y7828D01*
X9533Y7828D02*
X10033Y7828D01*
X9336Y11423D02*
X9836Y11423D01*
X9336Y11923D02*
X9826Y11923D01*
X9336Y12073D02*
X9336Y11273D01*
X9336Y11273D02*
X9836Y11273D01*
X9836Y11273D02*
X9836Y12073D01*
X9836Y12073D02*
X9336Y12073D01*
X4521Y11324D02*
X4521Y11824D01*
X4021Y11324D02*
X4021Y11814D01*
X3871Y11324D02*
X4671Y11324D01*
X4671Y11324D02*
X4671Y11824D01*
X4671Y11824D02*
X3871Y11824D01*
X3871Y11824D02*
X3871Y11324D01*
X17126Y11426D02*
X17626Y11426D01*
X17126Y11926D02*
X17616Y11926D01*
X17126Y12076D02*
X17126Y11276D01*
X17126Y11276D02*
X17626Y11276D01*
X17626Y11276D02*
X17626Y12076D01*
X17626Y12076D02*
X17126Y12076D01*
X18726Y12466D02*
X19226Y12466D01*
X18726Y12966D02*
X19216Y12966D01*
X18726Y13116D02*
X18726Y12316D01*
X18726Y12316D02*
X19226Y12316D01*
X19226Y12316D02*
X19226Y13116D01*
X19226Y13116D02*
X18726Y13116D01*
X27446Y8946D02*
X27446Y8446D01*
X27946Y8946D02*
X27946Y8456D01*
X28096Y8946D02*
X27296Y8946D01*
X27296Y8946D02*
X27296Y8446D01*
X27296Y8446D02*
X28096Y8446D01*
X28096Y8446D02*
X28096Y8946D01*
X23844Y6057D02*
X23844Y5557D01*
X24344Y6057D02*
X24344Y5567D01*
X24494Y6057D02*
X23694Y6057D01*
X23694Y6057D02*
X23694Y5557D01*
X23694Y5557D02*
X24494Y5557D01*
X24494Y5557D02*
X24494Y6057D01*
X31033Y13431D02*
X31033Y13931D01*
X30533Y13431D02*
X30533Y13921D01*
X30383Y13431D02*
X31183Y13431D01*
X31183Y13431D02*
X31183Y13931D01*
X31183Y13931D02*
X30383Y13931D01*
X30383Y13931D02*
X30383Y13431D01*
X4021Y10643D02*
X4021Y10143D01*
X4521Y10643D02*
X4521Y10153D01*
X4671Y10643D02*
X3871Y10643D01*
X3871Y10643D02*
X3871Y10143D01*
X3871Y10143D02*
X4671Y10143D01*
X4671Y10143D02*
X4671Y10643D01*
X16346Y11406D02*
X16846Y11406D01*
X16346Y11906D02*
X16836Y11906D01*
X16346Y12056D02*
X16346Y11256D01*
X16346Y11256D02*
X16846Y11256D01*
X16846Y11256D02*
X16846Y12056D01*
X16846Y12056D02*
X16346Y12056D01*
X12564Y10458D02*
X13064Y10458D01*
X12564Y10958D02*
X13054Y10958D01*
X12564Y11108D02*
X12564Y10308D01*
X12564Y10308D02*
X13064Y10308D01*
X13064Y10308D02*
X13064Y11108D01*
X13064Y11108D02*
X12564Y11108D01*
G54D18*
X-1578Y9424D02*
X-1578Y12968D01*
X-2956Y9424D02*
X-2956Y12968D01*
X-2956Y12968D02*
X2752Y12968D01*
X2752Y12968D02*
X2752Y9424D01*
X2752Y9424D02*
X-2956Y9424D01*
G54D14*
X28848Y14316D02*
X28848Y16116D01*
X20048Y16116D02*
X20048Y14316D01*
X20048Y14316D02*
X28848Y14316D01*
X28848Y16116D02*
X20048Y16116D01*
X31679Y12962D02*
X29879Y12962D01*
X29879Y4162D02*
X31679Y4162D01*
X31679Y4162D02*
X31679Y12962D01*
X29879Y12962D02*
X29879Y4162D01*
G54D15*
X18894Y7937D02*
X13254Y7937D01*
X11246Y6557D02*
X11246Y7937D01*
X18894Y7937D02*
X13254Y7937D01*
X18894Y7937D02*
X13254Y7937D01*
X11936Y6017D02*
X11936Y5697D01*
X10896Y6017D02*
X11936Y6017D01*
X10896Y5697D02*
X10896Y6017D01*
X11746Y6557D02*
X11746Y6017D01*
X11996Y6277D02*
X11746Y6277D01*
X11426Y6557D02*
X11426Y6017D01*
X11996Y6557D02*
X11246Y6557D01*
X11996Y6237D02*
X11996Y6557D01*
X18144Y6237D02*
X11996Y6237D01*
X18894Y7937D02*
X18894Y6557D01*
X18894Y6557D02*
X18144Y6557D01*
X18144Y6557D02*
X18144Y6237D01*
X18144Y6277D02*
X18394Y6277D01*
X18714Y6557D02*
X18714Y6017D01*
X18394Y6557D02*
X18394Y6017D01*
X19244Y5697D02*
X19244Y6017D01*
X19244Y6017D02*
X18204Y6017D01*
X18204Y6017D02*
X18204Y5697D01*
X19244Y5697D02*
X10896Y5697D01*
X18894Y7937D02*
X11246Y7937D01*
X2760Y15508D02*
X2760Y15808D01*
X2646Y15808D01*
X2617Y15794D01*
X2603Y15779D01*
X2589Y15751D01*
X2589Y15708D01*
X2603Y15679D01*
X2617Y15665D01*
X2646Y15651D01*
X2760Y15651D01*
X2475Y15779D02*
X2460Y15794D01*
X2432Y15808D01*
X2360Y15808D01*
X2332Y15794D01*
X2317Y15779D01*
X2303Y15751D01*
X2303Y15722D01*
X2317Y15679D01*
X2489Y15508D01*
X2303Y15508D01*
X21488Y7462D02*
X21488Y7219D01*
X21474Y7190D01*
X21459Y7176D01*
X21431Y7162D01*
X21374Y7162D01*
X21345Y7176D01*
X21331Y7190D01*
X21316Y7219D01*
X21316Y7462D01*
X21016Y7162D02*
X21188Y7162D01*
X21102Y7162D02*
X21102Y7462D01*
X21131Y7419D01*
X21159Y7390D01*
X21188Y7376D01*
X203Y8751D02*
X160Y8736D01*
X88Y8736D01*
X60Y8751D01*
X46Y8765D01*
X31Y8793D01*
X31Y8822D01*
X46Y8851D01*
X60Y8865D01*
X88Y8879D01*
X146Y8893D01*
X174Y8908D01*
X188Y8922D01*
X203Y8951D01*
X203Y8979D01*
X188Y9008D01*
X174Y9022D01*
X146Y9036D01*
X74Y9036D01*
X31Y9022D01*
X-68Y9036D02*
X-139Y8736D01*
X-196Y8951D01*
X-253Y8736D01*
X-325Y9036D01*
X-568Y9036D02*
X-511Y9036D01*
X-482Y9022D01*
X-468Y9008D01*
X-439Y8965D01*
X-425Y8908D01*
X-425Y8793D01*
X-439Y8765D01*
X-453Y8751D01*
X-482Y8736D01*
X-539Y8736D01*
X-568Y8751D01*
X-582Y8765D01*
X-596Y8793D01*
X-596Y8865D01*
X-582Y8893D01*
X-568Y8908D01*
X-539Y8922D01*
X-482Y8922D01*
X-453Y8908D01*
X-439Y8893D01*
X-425Y8865D01*
X18805Y15955D02*
X18762Y15941D01*
X18691Y15941D01*
X18662Y15955D01*
X18648Y15970D01*
X18634Y15998D01*
X18634Y16027D01*
X18648Y16055D01*
X18662Y16070D01*
X18691Y16084D01*
X18748Y16098D01*
X18776Y16112D01*
X18791Y16127D01*
X18805Y16155D01*
X18805Y16184D01*
X18791Y16212D01*
X18776Y16227D01*
X18748Y16241D01*
X18676Y16241D01*
X18634Y16227D01*
X18534Y16241D02*
X18462Y15941D01*
X18405Y16155D01*
X18348Y15941D01*
X18276Y16241D01*
X18019Y16241D02*
X18162Y16241D01*
X18176Y16098D01*
X18162Y16112D01*
X18134Y16127D01*
X18062Y16127D01*
X18034Y16112D01*
X18019Y16098D01*
X18005Y16070D01*
X18005Y15998D01*
X18019Y15970D01*
X18034Y15955D01*
X18062Y15941D01*
X18134Y15941D01*
X18162Y15955D01*
X18176Y15970D01*
X2413Y1800D02*
X2399Y1828D01*
X2370Y1857D01*
X2328Y1900D01*
X2313Y1928D01*
X2313Y1957D01*
X2385Y1943D02*
X2370Y1971D01*
X2342Y2000D01*
X2285Y2014D01*
X2185Y2014D01*
X2128Y2000D01*
X2099Y1971D01*
X2085Y1943D01*
X2085Y1885D01*
X2099Y1857D01*
X2128Y1828D01*
X2185Y1814D01*
X2285Y1814D01*
X2342Y1828D01*
X2370Y1857D01*
X2385Y1885D01*
X2385Y1943D01*
X2385Y1528D02*
X2385Y1700D01*
X2385Y1614D02*
X2085Y1614D01*
X2128Y1643D01*
X2156Y1671D01*
X2170Y1700D01*
X8457Y9418D02*
X8442Y9446D01*
X8414Y9475D01*
X8371Y9518D01*
X8357Y9546D01*
X8357Y9575D01*
X8428Y9561D02*
X8414Y9589D01*
X8385Y9618D01*
X8328Y9632D01*
X8228Y9632D01*
X8171Y9618D01*
X8142Y9589D01*
X8128Y9561D01*
X8128Y9504D01*
X8142Y9475D01*
X8171Y9446D01*
X8228Y9432D01*
X8328Y9432D01*
X8385Y9446D01*
X8414Y9475D01*
X8428Y9504D01*
X8428Y9561D01*
X8128Y9332D02*
X8128Y9146D01*
X8242Y9246D01*
X8242Y9204D01*
X8257Y9175D01*
X8271Y9161D01*
X8299Y9146D01*
X8371Y9146D01*
X8399Y9161D01*
X8414Y9175D01*
X8428Y9204D01*
X8428Y9289D01*
X8414Y9318D01*
X8399Y9332D01*
X12098Y9890D02*
X12084Y9919D01*
X12055Y9947D01*
X12013Y9990D01*
X11998Y10019D01*
X11998Y10047D01*
X12070Y10033D02*
X12055Y10062D01*
X12027Y10090D01*
X11970Y10105D01*
X11870Y10105D01*
X11813Y10090D01*
X11784Y10062D01*
X11770Y10033D01*
X11770Y9976D01*
X11784Y9947D01*
X11813Y9919D01*
X11870Y9905D01*
X11970Y9905D01*
X12027Y9919D01*
X12055Y9947D01*
X12070Y9976D01*
X12070Y10033D01*
X11798Y9790D02*
X11784Y9776D01*
X11770Y9747D01*
X11770Y9676D01*
X11784Y9647D01*
X11798Y9633D01*
X11827Y9619D01*
X11855Y9619D01*
X11898Y9633D01*
X12070Y9805D01*
X12070Y9619D01*
X15280Y11925D02*
X15280Y12225D01*
X15209Y12225D01*
X15166Y12211D01*
X15137Y12182D01*
X15123Y12154D01*
X15109Y12097D01*
X15109Y12054D01*
X15123Y11997D01*
X15137Y11968D01*
X15166Y11940D01*
X15209Y11925D01*
X15280Y11925D01*
X14851Y12225D02*
X14909Y12225D01*
X14937Y12211D01*
X14951Y12197D01*
X14980Y12154D01*
X14994Y12097D01*
X14994Y11982D01*
X14980Y11954D01*
X14966Y11940D01*
X14937Y11925D01*
X14880Y11925D01*
X14851Y11940D01*
X14837Y11954D01*
X14823Y11982D01*
X14823Y12054D01*
X14837Y12082D01*
X14851Y12097D01*
X14880Y12111D01*
X14937Y12111D01*
X14966Y12097D01*
X14980Y12082D01*
X14994Y12054D01*
X14138Y11965D02*
X14138Y12265D01*
X14067Y12265D01*
X14024Y12250D01*
X13995Y12222D01*
X13981Y12193D01*
X13967Y12136D01*
X13967Y12093D01*
X13981Y12036D01*
X13995Y12008D01*
X14024Y11979D01*
X14067Y11965D01*
X14138Y11965D01*
X13695Y12265D02*
X13838Y12265D01*
X13853Y12122D01*
X13838Y12136D01*
X13810Y12150D01*
X13738Y12150D01*
X13710Y12136D01*
X13695Y12122D01*
X13681Y12093D01*
X13681Y12022D01*
X13695Y11993D01*
X13710Y11979D01*
X13738Y11965D01*
X13810Y11965D01*
X13838Y11979D01*
X13853Y11993D01*
X2188Y831D02*
X1888Y831D01*
X1888Y760D01*
X1902Y717D01*
X1931Y688D01*
X1959Y674D01*
X2016Y660D01*
X2059Y660D01*
X2116Y674D01*
X2145Y688D01*
X2174Y717D01*
X2188Y760D01*
X2188Y831D01*
X2016Y488D02*
X2002Y517D01*
X1988Y531D01*
X1959Y545D01*
X1945Y545D01*
X1916Y531D01*
X1902Y517D01*
X1888Y488D01*
X1888Y431D01*
X1902Y403D01*
X1916Y388D01*
X1945Y374D01*
X1959Y374D01*
X1988Y388D01*
X2002Y403D01*
X2016Y431D01*
X2016Y488D01*
X2031Y517D01*
X2045Y531D01*
X2074Y545D01*
X2131Y545D01*
X2159Y531D01*
X2174Y517D01*
X2188Y488D01*
X2188Y431D01*
X2174Y403D01*
X2159Y388D01*
X2131Y374D01*
X2074Y374D01*
X2045Y388D01*
X2031Y403D01*
X2016Y431D01*
X3331Y2457D02*
X3331Y2757D01*
X3260Y2757D01*
X3217Y2743D01*
X3188Y2714D01*
X3174Y2685D01*
X3160Y2628D01*
X3160Y2585D01*
X3174Y2528D01*
X3188Y2500D01*
X3217Y2471D01*
X3260Y2457D01*
X3331Y2457D01*
X3060Y2757D02*
X2860Y2757D01*
X2988Y2457D01*
X10101Y10015D02*
X9958Y10115D01*
X10101Y10187D02*
X9801Y10187D01*
X9801Y10072D01*
X9816Y10044D01*
X9830Y10029D01*
X9858Y10015D01*
X9901Y10015D01*
X9930Y10029D01*
X9944Y10044D01*
X9958Y10072D01*
X9958Y10187D01*
X10101Y9729D02*
X10101Y9901D01*
X10101Y9815D02*
X9801Y9815D01*
X9844Y9844D01*
X9873Y9872D01*
X9887Y9901D01*
X9801Y9544D02*
X9801Y9515D01*
X9816Y9487D01*
X9830Y9472D01*
X9858Y9458D01*
X9916Y9444D01*
X9987Y9444D01*
X10044Y9458D01*
X10073Y9472D01*
X10087Y9487D01*
X10101Y9515D01*
X10101Y9544D01*
X10087Y9572D01*
X10073Y9587D01*
X10044Y9601D01*
X9987Y9615D01*
X9916Y9615D01*
X9858Y9601D01*
X9830Y9587D01*
X9816Y9572D01*
X9801Y9544D01*
X8566Y10699D02*
X8423Y10799D01*
X8566Y10871D02*
X8266Y10871D01*
X8266Y10756D01*
X8280Y10728D01*
X8294Y10713D01*
X8323Y10699D01*
X8366Y10699D01*
X8394Y10713D01*
X8409Y10728D01*
X8423Y10756D01*
X8423Y10871D01*
X8294Y10585D02*
X8280Y10571D01*
X8266Y10542D01*
X8266Y10471D01*
X8280Y10442D01*
X8294Y10428D01*
X8323Y10413D01*
X8352Y10413D01*
X8394Y10428D01*
X8566Y10599D01*
X8566Y10413D01*
X18526Y13908D02*
X18384Y14008D01*
X18526Y14079D02*
X18226Y14079D01*
X18226Y13965D01*
X18241Y13936D01*
X18255Y13922D01*
X18284Y13908D01*
X18326Y13908D01*
X18355Y13922D01*
X18369Y13936D01*
X18384Y13965D01*
X18384Y14079D01*
X18526Y13622D02*
X18526Y13793D01*
X18526Y13708D02*
X18226Y13708D01*
X18269Y13736D01*
X18298Y13765D01*
X18312Y13793D01*
X6019Y10351D02*
X6119Y10493D01*
X6191Y10351D02*
X6191Y10651D01*
X6076Y10651D01*
X6048Y10636D01*
X6033Y10622D01*
X6019Y10593D01*
X6019Y10551D01*
X6033Y10522D01*
X6048Y10508D01*
X6076Y10493D01*
X6191Y10493D01*
X5733Y10351D02*
X5905Y10351D01*
X5819Y10351D02*
X5819Y10651D01*
X5848Y10608D01*
X5876Y10579D01*
X5905Y10565D01*
X5448Y10351D02*
X5619Y10351D01*
X5533Y10351D02*
X5533Y10651D01*
X5562Y10608D01*
X5591Y10579D01*
X5619Y10565D01*
X18349Y11742D02*
X18206Y11842D01*
X18349Y11914D02*
X18049Y11914D01*
X18049Y11800D01*
X18064Y11771D01*
X18078Y11757D01*
X18106Y11742D01*
X18149Y11742D01*
X18178Y11757D01*
X18192Y11771D01*
X18206Y11800D01*
X18206Y11914D01*
X18049Y11642D02*
X18049Y11442D01*
X18349Y11571D01*
X16007Y10581D02*
X15864Y10681D01*
X16007Y10752D02*
X15707Y10752D01*
X15707Y10638D01*
X15721Y10610D01*
X15735Y10595D01*
X15764Y10581D01*
X15807Y10581D01*
X15835Y10595D01*
X15850Y10610D01*
X15864Y10638D01*
X15864Y10752D01*
X15835Y10410D02*
X15821Y10438D01*
X15807Y10452D01*
X15778Y10467D01*
X15764Y10467D01*
X15735Y10452D01*
X15721Y10438D01*
X15707Y10410D01*
X15707Y10352D01*
X15721Y10324D01*
X15735Y10310D01*
X15764Y10295D01*
X15778Y10295D01*
X15807Y10310D01*
X15821Y10324D01*
X15835Y10352D01*
X15835Y10410D01*
X15850Y10438D01*
X15864Y10452D01*
X15892Y10467D01*
X15950Y10467D01*
X15978Y10452D01*
X15992Y10438D01*
X16007Y10410D01*
X16007Y10352D01*
X15992Y10324D01*
X15978Y10310D01*
X15950Y10295D01*
X15892Y10295D01*
X15864Y10310D01*
X15850Y10324D01*
X15835Y10352D01*
X4944Y1388D02*
X4801Y1488D01*
X4944Y1560D02*
X4644Y1560D01*
X4644Y1445D01*
X4658Y1417D01*
X4672Y1402D01*
X4701Y1388D01*
X4744Y1388D01*
X4772Y1402D01*
X4787Y1417D01*
X4801Y1445D01*
X4801Y1560D01*
X4944Y1245D02*
X4944Y1188D01*
X4929Y1160D01*
X4915Y1145D01*
X4872Y1117D01*
X4815Y1102D01*
X4701Y1102D01*
X4672Y1117D01*
X4658Y1131D01*
X4644Y1160D01*
X4644Y1217D01*
X4658Y1245D01*
X4672Y1260D01*
X4701Y1274D01*
X4772Y1274D01*
X4801Y1260D01*
X4815Y1245D01*
X4829Y1217D01*
X4829Y1160D01*
X4815Y1131D01*
X4801Y1117D01*
X4772Y1102D01*
X2866Y7560D02*
X2866Y7317D01*
X2852Y7289D01*
X2837Y7274D01*
X2809Y7260D01*
X2752Y7260D01*
X2723Y7274D01*
X2709Y7289D01*
X2694Y7317D01*
X2694Y7560D01*
X2580Y7560D02*
X2394Y7560D01*
X2494Y7446D01*
X2452Y7446D01*
X2423Y7431D01*
X2409Y7417D01*
X2394Y7389D01*
X2394Y7317D01*
X2409Y7289D01*
X2423Y7274D01*
X2452Y7260D01*
X2537Y7260D01*
X2566Y7274D01*
X2580Y7289D01*
X9578Y7265D02*
X9578Y7022D01*
X9564Y6993D01*
X9550Y6979D01*
X9521Y6965D01*
X9464Y6965D01*
X9436Y6979D01*
X9421Y6993D01*
X9407Y7022D01*
X9407Y7265D01*
X9278Y7236D02*
X9264Y7250D01*
X9236Y7265D01*
X9164Y7265D01*
X9136Y7250D01*
X9121Y7236D01*
X9107Y7208D01*
X9107Y7179D01*
X9121Y7136D01*
X9293Y6965D01*
X9107Y6965D01*
X-132Y2713D02*
X-132Y3013D01*
X-247Y3013D01*
X-275Y2998D01*
X-290Y2984D01*
X-304Y2956D01*
X-304Y2913D01*
X-290Y2884D01*
X-275Y2870D01*
X-247Y2856D01*
X-132Y2856D01*
X-575Y3013D02*
X-432Y3013D01*
X-418Y2870D01*
X-432Y2884D01*
X-461Y2898D01*
X-532Y2898D01*
X-561Y2884D01*
X-575Y2870D01*
X-590Y2841D01*
X-590Y2770D01*
X-575Y2741D01*
X-561Y2727D01*
X-532Y2713D01*
X-461Y2713D01*
X-432Y2727D01*
X-418Y2741D01*
X19758Y14931D02*
X19772Y14946D01*
X19786Y14989D01*
X19786Y15017D01*
X19772Y15060D01*
X19743Y15089D01*
X19715Y15103D01*
X19658Y15117D01*
X19615Y15117D01*
X19558Y15103D01*
X19529Y15089D01*
X19501Y15060D01*
X19486Y15017D01*
X19486Y14989D01*
X19501Y14946D01*
X19515Y14931D01*
X19586Y14674D02*
X19786Y14674D01*
X19472Y14746D02*
X19686Y14817D01*
X19686Y14631D01*
X3081Y3450D02*
X3095Y3436D01*
X3138Y3421D01*
X3167Y3421D01*
X3210Y3436D01*
X3238Y3464D01*
X3252Y3493D01*
X3267Y3550D01*
X3267Y3593D01*
X3252Y3650D01*
X3238Y3679D01*
X3210Y3707D01*
X3167Y3721D01*
X3138Y3721D01*
X3095Y3707D01*
X3081Y3693D01*
X2910Y3593D02*
X2938Y3607D01*
X2952Y3621D01*
X2967Y3650D01*
X2967Y3664D01*
X2952Y3693D01*
X2938Y3707D01*
X2910Y3721D01*
X2852Y3721D01*
X2824Y3707D01*
X2810Y3693D01*
X2795Y3664D01*
X2795Y3650D01*
X2810Y3621D01*
X2824Y3607D01*
X2852Y3593D01*
X2910Y3593D01*
X2938Y3579D01*
X2952Y3564D01*
X2967Y3536D01*
X2967Y3479D01*
X2952Y3450D01*
X2938Y3436D01*
X2910Y3421D01*
X2852Y3421D01*
X2824Y3436D01*
X2810Y3450D01*
X2795Y3479D01*
X2795Y3536D01*
X2810Y3564D01*
X2824Y3579D01*
X2852Y3593D01*
X10525Y8278D02*
X10540Y8292D01*
X10554Y8335D01*
X10554Y8364D01*
X10540Y8406D01*
X10511Y8435D01*
X10483Y8449D01*
X10425Y8464D01*
X10383Y8464D01*
X10325Y8449D01*
X10297Y8435D01*
X10268Y8406D01*
X10254Y8364D01*
X10254Y8335D01*
X10268Y8292D01*
X10283Y8278D01*
X10254Y8178D02*
X10254Y7978D01*
X10554Y8106D01*
X10368Y11644D02*
X10382Y11658D01*
X10397Y11701D01*
X10397Y11730D01*
X10382Y11773D01*
X10354Y11801D01*
X10325Y11815D01*
X10268Y11830D01*
X10225Y11830D01*
X10168Y11815D01*
X10139Y11801D01*
X10111Y11773D01*
X10097Y11730D01*
X10097Y11701D01*
X10111Y11658D01*
X10125Y11644D01*
X10397Y11358D02*
X10397Y11530D01*
X10397Y11444D02*
X10097Y11444D01*
X10139Y11473D01*
X10168Y11501D01*
X10182Y11530D01*
X4464Y12131D02*
X4478Y12117D01*
X4521Y12102D01*
X4550Y12102D01*
X4593Y12117D01*
X4621Y12145D01*
X4635Y12174D01*
X4650Y12231D01*
X4650Y12274D01*
X4635Y12331D01*
X4621Y12360D01*
X4593Y12388D01*
X4550Y12402D01*
X4521Y12402D01*
X4478Y12388D01*
X4464Y12374D01*
X4178Y12102D02*
X4350Y12102D01*
X4264Y12102D02*
X4264Y12402D01*
X4293Y12360D01*
X4321Y12331D01*
X4350Y12317D01*
X3893Y12102D02*
X4064Y12102D01*
X3978Y12102D02*
X3978Y12402D01*
X4007Y12360D01*
X4035Y12331D01*
X4064Y12317D01*
X17474Y10601D02*
X17489Y10615D01*
X17503Y10658D01*
X17503Y10686D01*
X17489Y10729D01*
X17460Y10758D01*
X17431Y10772D01*
X17374Y10786D01*
X17331Y10786D01*
X17274Y10772D01*
X17246Y10758D01*
X17217Y10729D01*
X17203Y10686D01*
X17203Y10658D01*
X17217Y10615D01*
X17231Y10601D01*
X17503Y10458D02*
X17503Y10401D01*
X17489Y10372D01*
X17474Y10358D01*
X17431Y10329D01*
X17374Y10315D01*
X17260Y10315D01*
X17231Y10329D01*
X17217Y10344D01*
X17203Y10372D01*
X17203Y10429D01*
X17217Y10458D01*
X17231Y10472D01*
X17260Y10486D01*
X17331Y10486D01*
X17360Y10472D01*
X17374Y10458D01*
X17389Y10429D01*
X17389Y10372D01*
X17374Y10344D01*
X17360Y10329D01*
X17331Y10315D01*
X19541Y11826D02*
X19555Y11841D01*
X19570Y11883D01*
X19570Y11912D01*
X19555Y11955D01*
X19527Y11983D01*
X19498Y11998D01*
X19441Y12012D01*
X19398Y12012D01*
X19341Y11998D01*
X19313Y11983D01*
X19284Y11955D01*
X19270Y11912D01*
X19270Y11883D01*
X19284Y11841D01*
X19298Y11826D01*
X19570Y11541D02*
X19570Y11712D01*
X19570Y11626D02*
X19270Y11626D01*
X19313Y11655D01*
X19341Y11683D01*
X19355Y11712D01*
X19270Y11441D02*
X19270Y11255D01*
X19384Y11355D01*
X19384Y11312D01*
X19398Y11283D01*
X19413Y11269D01*
X19441Y11255D01*
X19513Y11255D01*
X19541Y11269D01*
X19555Y11283D01*
X19570Y11312D01*
X19570Y11398D01*
X19555Y11426D01*
X19541Y11441D01*
X27766Y9336D02*
X27780Y9321D01*
X27823Y9307D01*
X27852Y9307D01*
X27895Y9321D01*
X27923Y9350D01*
X27937Y9379D01*
X27952Y9436D01*
X27952Y9479D01*
X27937Y9536D01*
X27923Y9564D01*
X27895Y9593D01*
X27852Y9607D01*
X27823Y9607D01*
X27780Y9593D01*
X27766Y9579D01*
X27652Y9579D02*
X27637Y9593D01*
X27609Y9607D01*
X27537Y9607D01*
X27509Y9593D01*
X27495Y9579D01*
X27480Y9550D01*
X27480Y9521D01*
X27495Y9479D01*
X27666Y9307D01*
X27480Y9307D01*
X25246Y5674D02*
X25261Y5660D01*
X25303Y5646D01*
X25332Y5646D01*
X25375Y5660D01*
X25403Y5689D01*
X25418Y5717D01*
X25432Y5774D01*
X25432Y5817D01*
X25418Y5874D01*
X25403Y5903D01*
X25375Y5932D01*
X25332Y5946D01*
X25303Y5946D01*
X25261Y5932D01*
X25246Y5917D01*
X24975Y5946D02*
X25118Y5946D01*
X25132Y5803D01*
X25118Y5817D01*
X25089Y5832D01*
X25018Y5832D01*
X24989Y5817D01*
X24975Y5803D01*
X24961Y5774D01*
X24961Y5703D01*
X24975Y5674D01*
X24989Y5660D01*
X25018Y5646D01*
X25089Y5646D01*
X25118Y5660D01*
X25132Y5674D01*
X29656Y13548D02*
X29670Y13534D01*
X29713Y13520D01*
X29742Y13520D01*
X29784Y13534D01*
X29813Y13563D01*
X29827Y13591D01*
X29842Y13648D01*
X29842Y13691D01*
X29827Y13748D01*
X29813Y13777D01*
X29784Y13806D01*
X29742Y13820D01*
X29713Y13820D01*
X29670Y13806D01*
X29656Y13791D01*
X29556Y13820D02*
X29370Y13820D01*
X29470Y13706D01*
X29427Y13706D01*
X29399Y13691D01*
X29384Y13677D01*
X29370Y13648D01*
X29370Y13577D01*
X29384Y13548D01*
X29399Y13534D01*
X29427Y13520D01*
X29513Y13520D01*
X29542Y13534D01*
X29556Y13548D01*
X4464Y10871D02*
X4478Y10857D01*
X4521Y10843D01*
X4550Y10843D01*
X4593Y10857D01*
X4621Y10885D01*
X4635Y10914D01*
X4650Y10971D01*
X4650Y11014D01*
X4635Y11071D01*
X4621Y11100D01*
X4593Y11128D01*
X4550Y11143D01*
X4521Y11143D01*
X4478Y11128D01*
X4464Y11114D01*
X4178Y10843D02*
X4350Y10843D01*
X4264Y10843D02*
X4264Y11143D01*
X4293Y11100D01*
X4321Y11071D01*
X4350Y11057D01*
X3993Y11143D02*
X3964Y11143D01*
X3935Y11128D01*
X3921Y11114D01*
X3907Y11085D01*
X3893Y11028D01*
X3893Y10957D01*
X3907Y10900D01*
X3921Y10871D01*
X3935Y10857D01*
X3964Y10843D01*
X3993Y10843D01*
X4021Y10857D01*
X4035Y10871D01*
X4050Y10900D01*
X4064Y10957D01*
X4064Y11028D01*
X4050Y11085D01*
X4035Y11114D01*
X4021Y11128D01*
X3993Y11143D01*
X16726Y10620D02*
X16741Y10635D01*
X16755Y10678D01*
X16755Y10706D01*
X16741Y10749D01*
X16712Y10778D01*
X16683Y10792D01*
X16626Y10806D01*
X16583Y10806D01*
X16526Y10792D01*
X16498Y10778D01*
X16469Y10749D01*
X16455Y10706D01*
X16455Y10678D01*
X16469Y10635D01*
X16483Y10620D01*
X16455Y10363D02*
X16455Y10420D01*
X16469Y10449D01*
X16483Y10463D01*
X16526Y10492D01*
X16583Y10506D01*
X16698Y10506D01*
X16726Y10492D01*
X16741Y10478D01*
X16755Y10449D01*
X16755Y10392D01*
X16741Y10363D01*
X16726Y10349D01*
X16698Y10335D01*
X16626Y10335D01*
X16598Y10349D01*
X16583Y10363D01*
X16569Y10392D01*
X16569Y10449D01*
X16583Y10478D01*
X16598Y10492D01*
X16626Y10506D01*
X13577Y10960D02*
X13591Y10974D01*
X13605Y11017D01*
X13605Y11046D01*
X13591Y11089D01*
X13562Y11117D01*
X13534Y11132D01*
X13477Y11146D01*
X13434Y11146D01*
X13377Y11132D01*
X13348Y11117D01*
X13319Y11089D01*
X13305Y11046D01*
X13305Y11017D01*
X13319Y10974D01*
X13334Y10960D01*
X13605Y10674D02*
X13605Y10846D01*
X13605Y10760D02*
X13305Y10760D01*
X13348Y10789D01*
X13377Y10817D01*
X13391Y10846D01*
X13334Y10560D02*
X13319Y10546D01*
X13305Y10517D01*
X13305Y10446D01*
X13319Y10417D01*
X13334Y10403D01*
X13362Y10389D01*
X13391Y10389D01*
X13434Y10403D01*
X13605Y10574D01*
X13605Y10389D01*
X-147Y13411D02*
X-133Y13396D01*
X-90Y13382D01*
X-61Y13382D01*
X-18Y13396D01*
X9Y13425D01*
X23Y13453D01*
X38Y13511D01*
X38Y13553D01*
X23Y13611D01*
X9Y13639D01*
X-18Y13668D01*
X-61Y13682D01*
X-90Y13682D01*
X-133Y13668D01*
X-147Y13653D01*
X-333Y13682D02*
X-390Y13682D01*
X-418Y13668D01*
X-447Y13639D01*
X-461Y13582D01*
X-461Y13482D01*
X-447Y13425D01*
X-418Y13396D01*
X-390Y13382D01*
X-333Y13382D01*
X-304Y13396D01*
X-276Y13425D01*
X-261Y13482D01*
X-261Y13582D01*
X-276Y13639D01*
X-304Y13668D01*
X-333Y13682D01*
X-590Y13382D02*
X-590Y13682D01*
X-761Y13382D01*
X-761Y13682D01*
X-1061Y13382D02*
X-890Y13382D01*
X-976Y13382D02*
X-976Y13682D01*
X-947Y13639D01*
X-918Y13611D01*
X-890Y13596D01*
X24670Y13599D02*
X24670Y13899D01*
X24555Y13899D01*
X24527Y13884D01*
X24513Y13870D01*
X24498Y13841D01*
X24498Y13799D01*
X24513Y13770D01*
X24527Y13756D01*
X24555Y13741D01*
X24670Y13741D01*
X24398Y13899D02*
X24213Y13899D01*
X24313Y13784D01*
X24270Y13784D01*
X24241Y13770D01*
X24227Y13756D01*
X24213Y13727D01*
X24213Y13656D01*
X24227Y13627D01*
X24241Y13613D01*
X24270Y13599D01*
X24355Y13599D01*
X24384Y13613D01*
X24398Y13627D01*
X30987Y3685D02*
X30687Y3685D01*
X30687Y3571D01*
X30701Y3543D01*
X30716Y3528D01*
X30744Y3514D01*
X30787Y3514D01*
X30816Y3528D01*
X30830Y3543D01*
X30844Y3571D01*
X30844Y3685D01*
X30987Y3228D02*
X30987Y3400D01*
X30987Y3314D02*
X30687Y3314D01*
X30730Y3343D01*
X30758Y3371D01*
X30773Y3400D01*
X20201Y7102D02*
X20201Y7402D01*
X20087Y7402D01*
X20058Y7388D01*
X20044Y7374D01*
X20030Y7345D01*
X20030Y7302D01*
X20044Y7274D01*
X20058Y7260D01*
X20087Y7245D01*
X20201Y7245D01*
X19773Y7302D02*
X19773Y7102D01*
X19844Y7417D02*
X19916Y7202D01*
X19730Y7202D01*
%LPC*%
G54D19*
X11503Y14224D03*
X11503Y15224D03*
X10503Y14224D03*
X10503Y15224D03*
X9503Y14224D03*
X9503Y15224D03*
X8503Y14224D03*
X8503Y15224D03*
X7503Y14224D03*
X7503Y15224D03*
X6503Y14224D03*
X6503Y15224D03*
X5503Y14224D03*
X5503Y15224D03*
G54D20*
X25531Y7492D03*
G54D21*
X25334Y7492D03*
X25137Y7492D03*
X24940Y7492D03*
X24743Y7492D03*
X24547Y7492D03*
X24350Y7492D03*
X24153Y7492D03*
X23956Y7492D03*
X23759Y7492D03*
X23562Y7492D03*
X23366Y7492D03*
X23169Y7492D03*
X22972Y7492D03*
X22775Y7492D03*
X22578Y7492D03*
G54D22*
X21680Y8327D03*
X21680Y8524D03*
X21680Y8721D03*
X21680Y8918D03*
X21680Y9115D03*
X21680Y9311D03*
X21680Y9508D03*
X21680Y9705D03*
X21680Y9902D03*
X21680Y10099D03*
X21680Y10296D03*
X21680Y10492D03*
X21680Y10689D03*
X21680Y10886D03*
X21680Y11083D03*
X21680Y11280D03*
G54D21*
X22578Y12178D03*
X22775Y12178D03*
X22972Y12178D03*
X23169Y12178D03*
X23366Y12178D03*
X23562Y12178D03*
X23759Y12178D03*
X23956Y12178D03*
X24153Y12178D03*
X24350Y12178D03*
X24547Y12178D03*
X24743Y12178D03*
X24940Y12178D03*
X25137Y12178D03*
X25334Y12178D03*
X25531Y12178D03*
G54D22*
X26366Y11280D03*
X26366Y11083D03*
X26366Y10689D03*
X26373Y10886D03*
X26366Y10492D03*
X26366Y10296D03*
X26366Y10099D03*
X26366Y9902D03*
X26366Y9705D03*
X26366Y9508D03*
X26366Y9314D03*
X26366Y9117D03*
X26366Y8920D03*
X26366Y8723D03*
X26366Y8527D03*
X26366Y8330D03*
G54D23*
X1496Y6196D03*
G54D24*
X1496Y7377D03*
G54D23*
X1496Y5015D03*
G54D25*
X17346Y13946D03*
X17346Y15946D03*
X14346Y13946D03*
X14346Y15946D03*
G54D23*
X8877Y-2244D03*
X8877Y-358D03*
X14000Y-2244D03*
X14000Y-358D03*
X2377Y-2244D03*
X2377Y-358D03*
X7500Y-2244D03*
X7500Y-358D03*
X23070Y-2259D03*
X23070Y-374D03*
X28192Y-2259D03*
X28192Y-374D03*
X16279Y-2259D03*
X16279Y-374D03*
X21401Y-2259D03*
X21401Y-374D03*
G54D26*
X3211Y1713D03*
X2379Y1338D03*
X3211Y963D03*
X7300Y9526D03*
X8132Y9901D03*
X7300Y10276D03*
X11183Y10276D03*
X10351Y9901D03*
X11183Y9526D03*
G54D27*
X17406Y12876D03*
X16106Y12876D03*
X15306Y12876D03*
X14006Y12876D03*
G54D28*
X1220Y0D03*
X1220Y1299D03*
G54D27*
X1082Y2578D03*
X2382Y2578D03*
G54D29*
X9389Y9526D03*
X9389Y10276D03*
X8405Y11298D03*
X8405Y12048D03*
X18070Y14605D03*
X18070Y15355D03*
G54D30*
X5491Y9905D03*
X6241Y9905D03*
G54D29*
X18196Y12341D03*
X18196Y13091D03*
X15876Y11261D03*
X15876Y12011D03*
X4173Y963D03*
X4173Y1713D03*
G54D31*
X3346Y8897D03*
X5157Y8897D03*
G54D32*
X4251Y8661D03*
G54D33*
X4251Y6899D03*
G54D31*
X6929Y8917D03*
X8740Y8917D03*
G54D32*
X7834Y8681D03*
G54D33*
X7834Y6919D03*
G54D34*
X5846Y11173D03*
G54D35*
X5846Y12173D03*
G54D34*
X11681Y12165D03*
G54D35*
X10681Y12165D03*
G54D34*
X7224Y12173D03*
G54D35*
X7224Y11173D03*
G54D36*
X-3Y7D03*
G54D37*
X-3Y1385D03*
G54D38*
X18976Y15451D03*
X18976Y14351D03*
G54D39*
X2282Y3582D03*
X1182Y3582D03*
G54D40*
X9783Y8603D03*
X9783Y7853D03*
X9586Y11298D03*
X9586Y12048D03*
G54D41*
X4646Y11574D03*
X3896Y11574D03*
G54D40*
X17376Y11301D03*
X17376Y12051D03*
X18976Y12341D03*
X18976Y13091D03*
G54D41*
X27321Y8696D03*
X28071Y8696D03*
X23719Y5807D03*
X24469Y5807D03*
X31158Y13681D03*
X30408Y13681D03*
X3896Y10393D03*
X4646Y10393D03*
G54D40*
X16596Y11281D03*
X16596Y12031D03*
X12814Y10333D03*
X12814Y11083D03*
G54D42*
X2437Y11196D03*
X75Y11196D03*
X1256Y13046D03*
G54D35*
X27448Y14716D03*
X28448Y15716D03*
G54D34*
X20448Y15716D03*
G54D35*
X20448Y14716D03*
X21448Y15716D03*
X21448Y14716D03*
X22448Y15716D03*
X22448Y14716D03*
X23448Y15716D03*
X23448Y14716D03*
X24448Y15716D03*
X24448Y14716D03*
X25448Y15716D03*
X25448Y14716D03*
X26448Y15716D03*
X26448Y14716D03*
X27448Y15716D03*
X28448Y14716D03*
X31279Y11562D03*
X30279Y12562D03*
G54D34*
X30279Y4562D03*
G54D35*
X31279Y4562D03*
X30279Y5562D03*
X31279Y5562D03*
X30279Y6562D03*
X31279Y6562D03*
X30279Y7562D03*
X31279Y7562D03*
X30279Y8562D03*
X31279Y8562D03*
X30279Y9562D03*
X31279Y9562D03*
X30279Y10562D03*
X31279Y10562D03*
X30279Y11562D03*
X31279Y12562D03*
G54D43*
X12224Y8217D03*
X12814Y8217D03*
X12421Y8217D03*
X13208Y8217D03*
X13405Y8217D03*
X13996Y8217D03*
X12618Y8217D03*
X13602Y8217D03*
X14404Y8217D03*
X14599Y8217D03*
X15974Y8217D03*
X16174Y8217D03*
X16369Y8217D03*
X15779Y8217D03*
X17944Y8217D03*
X16564Y8217D03*
X16764Y8217D03*
X16959Y8217D03*
X17154Y8217D03*
X17354Y8217D03*
X17549Y8217D03*
X17744Y8217D03*
X15584Y8217D03*
X15384Y8217D03*
X15189Y8217D03*
X14994Y8217D03*
X14794Y8217D03*
X13011Y8217D03*
X13799Y8217D03*
X14204Y8217D03*
G54D44*
X18914Y7337D03*
X11228Y7337D03*
M02*
