G04 (created by PCBNEW (2013-07-07 BZR 4022)-stable) date 21/05/2014 18:52:46*
%MOIN*%
G04 Gerber Fmt 3.4, Leading zero omitted, Abs format*
%FSLAX34Y34*%
G01*
G70*
G90*
G04 APERTURE LIST*
%ADD10C,0.00590551*%
%ADD11C,0.0787402*%
%ADD12R,0.0787402X0.0787402*%
%ADD13C,0.055*%
%ADD14R,0.035X0.055*%
%ADD15R,0.06X0.06*%
%ADD16C,0.06*%
%ADD17R,0.0472X0.0472*%
%ADD18C,0.0944882*%
%ADD19R,0.0944882X0.0944882*%
%ADD20R,0.1378X0.1378*%
G04 APERTURE END LIST*
G54D10*
G54D11*
X1496Y6196D03*
G54D12*
X1496Y7377D03*
G54D11*
X1496Y5015D03*
G54D13*
X17346Y13946D03*
X17346Y15946D03*
X14346Y13946D03*
X14346Y15946D03*
G54D11*
X8877Y-2244D03*
X8877Y-358D03*
X14000Y-2244D03*
X14000Y-358D03*
X2377Y-2244D03*
X2377Y-358D03*
X7500Y-2244D03*
X7500Y-358D03*
X23070Y-2259D03*
X23070Y-374D03*
X28192Y-2259D03*
X28192Y-374D03*
X16279Y-2259D03*
X16279Y-374D03*
X21401Y-2259D03*
X21401Y-374D03*
G54D14*
X11487Y3346D03*
X12237Y3346D03*
X18042Y3354D03*
X18792Y3354D03*
X24644Y3346D03*
X25394Y3346D03*
X4963Y3354D03*
X5713Y3354D03*
G54D15*
X5846Y11173D03*
G54D16*
X5846Y12173D03*
G54D15*
X11681Y12165D03*
G54D16*
X10681Y12165D03*
G54D15*
X7224Y12173D03*
G54D16*
X7224Y11173D03*
G54D17*
X4929Y2515D03*
X5755Y2515D03*
X11472Y2421D03*
X12298Y2421D03*
X24626Y2480D03*
X25452Y2480D03*
X18027Y2429D03*
X18853Y2429D03*
G54D18*
X-3Y7D03*
G54D19*
X-3Y1385D03*
G54D20*
X2437Y11196D03*
X75Y11196D03*
X1256Y13046D03*
G54D16*
X27448Y14716D03*
X28448Y15716D03*
G54D15*
X20448Y15716D03*
G54D16*
X20448Y14716D03*
X21448Y15716D03*
X21448Y14716D03*
X22448Y15716D03*
X22448Y14716D03*
X23448Y15716D03*
X23448Y14716D03*
X24448Y15716D03*
X24448Y14716D03*
X25448Y15716D03*
X25448Y14716D03*
X26448Y15716D03*
X26448Y14716D03*
X27448Y15716D03*
X28448Y14716D03*
X31279Y11562D03*
X30279Y12562D03*
G54D15*
X30279Y4562D03*
G54D16*
X31279Y4562D03*
X30279Y5562D03*
X31279Y5562D03*
X30279Y6562D03*
X31279Y6562D03*
X30279Y7562D03*
X31279Y7562D03*
X30279Y8562D03*
X31279Y8562D03*
X30279Y9562D03*
X31279Y9562D03*
X30279Y10562D03*
X31279Y10562D03*
X30279Y11562D03*
X31279Y12562D03*
M02*
