G04 (created by PCBNEW (2013-07-07 BZR 4022)-stable) date 21/05/2014 18:52:46*
%MOIN*%
G04 Gerber Fmt 3.4, Leading zero omitted, Abs format*
%FSLAX34Y34*%
G01*
G70*
G90*
G04 APERTURE LIST*
%ADD10C,0.00590551*%
%ADD11C,0.00393701*%
G04 APERTURE END LIST*
G54D10*
G54D11*
X-845Y-1318D02*
G75*
G03X-845Y-1318I0J0D01*
G74*
G01*
X-847Y-1318D02*
X-845Y-1318D01*
X-846Y-1317D02*
X-846Y-1319D01*
X30059Y-826D02*
G75*
G03X30059Y-826I0J0D01*
G74*
G01*
X30058Y-826D02*
X30060Y-826D01*
X30059Y-825D02*
X30059Y-827D01*
X27303Y4897D02*
X27303Y4307D01*
X2893Y4893D02*
X2925Y4893D01*
X2893Y4307D02*
X2893Y4893D01*
X15102Y4307D02*
X2893Y4307D01*
X15102Y4307D02*
X27303Y4307D01*
X15098Y4897D02*
X27303Y4897D01*
X15098Y4897D02*
X2893Y4897D01*
X31463Y15511D02*
G75*
G03X31463Y15511I-813J0D01*
G74*
G01*
X31583Y-2992D02*
G75*
G03X31583Y-2992I-933J0D01*
G74*
G01*
X405Y-2992D02*
G75*
G03X405Y-2992I-858J0D01*
G74*
G01*
X340Y15511D02*
G75*
G03X340Y15511I-793J0D01*
G74*
G01*
X31830Y15905D02*
X31830Y15866D01*
X31043Y16692D02*
X31830Y15905D01*
X31043Y-4173D02*
X31830Y-3385D01*
X-1633Y-3385D02*
X-846Y-4173D01*
X-846Y16692D02*
X-807Y16692D01*
X-1633Y15905D02*
X-846Y16692D01*
X-846Y16692D02*
X31043Y16692D01*
X31830Y-3385D02*
X31830Y15905D01*
X-1633Y-3385D02*
X-1633Y15905D01*
X-846Y-4173D02*
X31043Y-4173D01*
M02*
